<svg width="204" height="130" viewBox="0 0 204 130" fill="none" xmlns="http://www.w3.org/2000/svg">
<path d="M91.4007 53.5591C90.9875 54.2538 90.3115 54.7266 89.3729 54.9776C88.4161 55.2334 87.5848 55.1636 86.8789 54.7682C86.1682 54.3551 85.6414 53.582 85.2984 52.4488C85.1434 51.9438 84.9385 51.2165 84.6835 50.2671C84.4333 49.3352 84.2511 48.6207 84.1369 48.1236C83.8662 46.9711 83.9374 46.0475 84.3506 45.3528C84.7591 44.6406 85.4417 44.1566 86.3984 43.9008C87.3371 43.6498 88.1618 43.7308 88.8724 44.1438C89.5784 44.5393 90.1028 45.3036 90.4458 46.4368C90.7463 47.4117 90.9556 48.119 91.0736 48.5585C91.1916 48.9981 91.3695 49.7326 91.6073 50.762C91.878 51.9145 91.8092 52.8469 91.4007 53.5591Z" fill="#212121"/>
<path d="M91.4007 53.5591C90.9875 54.2538 90.3115 54.7266 89.3729 54.9776C88.4161 55.2334 87.5848 55.1636 86.8789 54.7682C86.1682 54.3551 85.6414 53.582 85.2984 52.4488C85.1434 51.9438 84.9385 51.2165 84.6835 50.2671C84.4333 49.3352 84.2511 48.6207 84.1369 48.1236C83.8662 46.9711 83.9374 46.0475 84.3506 45.3528C84.7591 44.6406 85.4417 44.1566 86.3984 43.9008C87.3371 43.6498 88.1618 43.7308 88.8724 44.1438C89.5784 44.5393 90.1028 45.3036 90.4458 46.4368C90.7463 47.4117 90.9556 48.119 91.0736 48.5585C91.1916 48.9981 91.3695 49.7326 91.6073 50.762C91.878 51.9145 91.8092 52.8469 91.4007 53.5591Z" fill="white"/>
<path d="M131.588 32.8358L135.804 38.9167L130.984 40.2054L131.588 32.8358Z" fill="#212121"/>
<path d="M131.588 32.8358L135.804 38.9167L130.984 40.2054L131.588 32.8358Z" fill="white"/>
<path fill-rule="evenodd" clip-rule="evenodd" d="M2.19105 40.8056C0.614566 41.2272 -0.320989 42.8441 0.101428 44.4172L13.8688 95.6872C14.2912 97.2603 15.9117 98.1938 17.4881 97.7723L36.5178 92.6843L33.6635 93.4474C35.2289 93.0289 36.8375 93.9464 37.2737 95.4994L45.951 127.814C46.3734 129.387 47.9938 130.32 49.5703 129.899L201.809 89.1944C203.385 88.7728 204.321 87.1559 203.899 85.5828L190.131 34.3128C189.709 32.7397 188.088 31.8062 186.512 32.2277L170.321 36.5566C168.75 36.968 167.138 36.0354 166.717 34.4674L158.049 2.18633C157.627 0.613243 156.006 -0.320297 154.43 0.101209L2.19105 40.8056ZM125.293 88.2829C123.518 88.7576 121.981 88.9046 120.683 88.7239C119.386 88.5432 118.346 88.1428 117.564 87.5226C116.783 86.9024 116.227 86.1559 115.896 85.2832L115.882 85.2305C115.844 85.0898 115.868 84.9611 115.951 84.8445C116.049 84.7054 116.169 84.6167 116.312 84.5784L119.971 83.6003C120.186 83.5428 120.368 83.5412 120.517 83.5955C120.661 83.6323 120.809 83.7154 120.959 83.8449C121.602 84.5961 122.66 84.7752 124.13 84.3821C125.062 84.1327 125.753 83.7691 126.201 83.2912C126.649 82.8133 126.791 82.2667 126.625 81.6513C126.456 81.0184 126.077 80.6108 125.49 80.4285C124.916 80.2239 124.172 80.2439 123.257 80.4884L121.267 81.0206C121.088 81.0685 120.907 81.0413 120.726 80.939C120.563 80.8319 120.455 80.6817 120.403 80.4883L119.801 78.2465C119.749 78.0531 119.767 77.8693 119.855 77.6951C119.961 77.5161 120.103 77.4026 120.283 77.3547L122.219 76.8369C122.972 76.6355 123.526 76.3366 123.881 75.9402C124.231 75.5263 124.324 75.0116 124.158 74.3962C124.012 73.8512 123.672 73.4803 123.139 73.2837C122.619 73.0647 121.964 73.0607 121.175 73.2716C120.422 73.473 119.843 73.7503 119.438 74.1035C119.051 74.452 118.852 74.8539 118.84 75.3095C118.793 75.4917 118.725 75.6323 118.636 75.7314C118.547 75.8305 118.404 75.9065 118.207 75.9592L114.468 76.9588C114.307 77.002 114.149 76.9876 113.995 76.9157C113.842 76.8437 113.752 76.7262 113.728 76.5632C113.502 75.0783 113.882 73.667 114.868 72.3292C115.872 70.9866 117.656 69.9725 120.221 69.2869C121.727 68.8841 123.109 68.7691 124.366 68.9418C125.641 69.1096 126.692 69.5165 127.519 70.1623C128.363 70.8032 128.913 71.5984 129.168 72.5479C129.371 73.3039 129.401 74.0592 129.258 74.8136C129.128 75.5456 128.734 76.2257 128.076 76.8539C129.131 77.0617 129.969 77.4973 130.589 78.1606C131.227 78.8192 131.664 79.588 131.9 80.4671C132.202 81.5924 132.137 82.6745 131.705 83.7134C131.268 84.7348 130.504 85.6458 129.412 86.4466C128.316 87.2297 126.942 87.8419 125.293 88.2829ZM91.7493 96.3187C91.7163 96.1956 91.6634 96.1061 91.5907 96.0502L83.8006 88.8332L86.6237 79.4852C86.6576 79.3254 86.6651 79.2103 86.6463 79.14C86.6038 78.9818 86.5146 78.8643 86.3786 78.7876C86.2427 78.7108 86.0851 78.6964 85.9058 78.7444L81.8174 79.8375C81.3332 79.967 81.0397 80.2339 80.9369 80.6383L78.7846 88.0826L77.3591 88.4638L75.6735 82.1869C75.6216 81.9935 75.5074 81.8544 75.3309 81.7697C75.1723 81.6802 74.9944 81.6618 74.7972 81.7145L71.3005 82.6494C71.1212 82.6974 70.9763 82.8021 70.8659 82.9635C70.7734 83.1201 70.7532 83.2952 70.8051 83.4886L72.4906 89.7654L71.0382 90.1538L65.444 84.7806C65.1165 84.4913 64.7285 84.4066 64.2803 84.5265L60.1918 85.6196C60.0305 85.6627 59.9101 85.7514 59.8309 85.8857C59.7516 86.02 59.7332 86.1662 59.7757 86.3244C59.804 86.4299 59.8593 86.5282 59.9414 86.6193L67.0703 93.3064L63.9401 103.443C63.9184 103.506 63.9265 103.607 63.9642 103.748C64.0115 103.924 64.1054 104.059 64.246 104.153C64.3999 104.225 64.5575 104.239 64.7189 104.196L68.9687 103.06C69.2197 102.993 69.3962 102.898 69.4981 102.777C69.6132 102.633 69.7033 102.468 69.7684 102.281L72.0057 94.6157L73.6733 94.1698L75.4084 100.631C75.4603 100.825 75.5656 100.966 75.7241 101.056C75.8827 101.145 76.0606 101.164 76.2579 101.111L79.7545 100.176C79.9518 100.123 80.0966 100.019 80.1891 99.8619C80.2995 99.7004 80.3288 99.523 80.2768 99.3296L78.5417 92.8681L80.2094 92.4222L85.9876 97.944C86.2793 98.243 86.6403 98.3349 87.0706 98.2198L91.2935 97.0907C91.4729 97.0428 91.6021 96.9517 91.6814 96.8174C91.7739 96.6608 91.7965 96.4945 91.7493 96.3187ZM95.7943 95.6895C95.9528 95.779 96.1307 95.7974 96.328 95.7447L99.6364 94.8601C99.8695 94.7978 100.037 94.7058 100.139 94.5844C100.259 94.4581 100.351 94.3015 100.416 94.1145L105.135 82.0549L107.798 91.9713C107.849 92.1647 107.955 92.3062 108.113 92.3957C108.29 92.4804 108.477 92.4964 108.674 92.4437L112.359 91.4584C112.556 91.4057 112.701 91.301 112.793 91.1444C112.881 90.9702 112.901 90.7951 112.854 90.6193L108.258 73.5029C108.206 73.3095 108.101 73.1681 107.942 73.0786C107.779 72.9715 107.599 72.9443 107.401 72.997L104.093 73.8816C103.699 73.9871 103.439 74.2356 103.313 74.6272L98.7081 87.1087L95.939 76.7967C95.8871 76.6033 95.7729 76.4642 95.5964 76.3795C95.4331 76.2724 95.2528 76.2452 95.0555 76.298L91.3975 77.276C91.2002 77.3288 91.0488 77.4447 90.9431 77.6237C90.8506 77.7803 90.8304 77.9553 90.8823 78.1487L95.4714 95.2387C95.5234 95.4321 95.631 95.5824 95.7943 95.6895ZM137.701 84.4849C137.859 84.5744 138.037 84.5928 138.234 84.54L141.919 83.5548C142.117 83.502 142.261 83.3973 142.354 83.2407C142.464 83.0793 142.494 82.9018 142.442 82.7084L140.707 76.247L147.054 74.5497L148.789 81.0112C148.841 81.2046 148.947 81.3461 149.105 81.4356C149.282 81.5203 149.469 81.5363 149.666 81.4836L153.324 80.5055C153.521 80.4528 153.666 80.3481 153.758 80.1915C153.869 80.03 153.898 79.8526 153.846 79.6592L149.25 62.5428C149.198 62.3494 149.084 62.2104 148.907 62.1256C148.744 62.0185 148.564 61.9914 148.366 62.0441L144.708 63.0222C144.511 63.0749 144.36 63.1908 144.254 63.3698C144.162 63.5264 144.141 63.7015 144.193 63.8949L145.872 70.1454L139.524 71.8426L137.845 65.5921C137.793 65.3987 137.679 65.2596 137.503 65.1749C137.339 65.0678 137.159 65.0406 136.962 65.0934L133.277 66.0786C133.08 66.1313 132.937 66.2448 132.85 66.419C132.757 66.5757 132.737 66.7507 132.789 66.9441L137.385 84.0605C137.437 84.2539 137.542 84.3953 137.701 84.4849ZM159.7 78.8008C159.503 78.8535 159.325 78.8351 159.166 78.7456C159.003 78.6385 158.895 78.4882 158.843 78.2948L154.254 61.2048C154.202 61.0114 154.222 60.8364 154.315 60.6798C154.421 60.5008 154.572 60.3849 154.769 60.3322L158.427 59.3541C158.625 59.3014 158.805 59.3285 158.968 59.4356C159.145 59.5203 159.259 59.6594 159.311 59.8528L162.08 70.1648L166.685 57.6833C166.81 57.2917 167.07 57.0432 167.465 56.9377L170.773 56.0531C170.971 56.0004 171.151 56.0276 171.314 56.1347C171.473 56.2242 171.578 56.3656 171.63 56.559L176.226 73.6754C176.273 73.8512 176.253 74.0263 176.165 74.2005C176.073 74.3571 175.928 74.4618 175.731 74.5145L172.046 75.4998C171.849 75.5525 171.662 75.5365 171.485 75.4518C171.327 75.3623 171.221 75.2208 171.169 75.0274L168.507 65.111L163.788 77.1706C163.723 77.3576 163.631 77.5142 163.511 77.6405C163.409 77.7619 163.241 77.8539 163.008 77.9162L159.7 78.8008ZM83.8813 58.7355C85.6873 59.5529 87.8719 59.619 90.4352 58.9336C92.9984 58.2483 94.8482 57.1035 95.9846 55.4994C97.139 53.8905 97.4451 51.8959 96.9026 49.5158C96.6744 48.5215 96.4894 47.7606 96.3477 47.2332C96.2108 46.7233 95.9874 45.9633 95.6775 44.9532C94.982 42.6516 93.7086 41.0794 91.8571 40.2364C90.0189 39.3711 87.8452 39.2739 85.3361 39.9447C82.809 40.6204 80.9572 41.7939 79.7808 43.4653C78.6178 45.1142 78.3118 47.1088 78.8628 49.4489C78.9817 49.9637 79.178 50.7309 79.4518 51.7507C79.7257 52.7704 79.9377 53.5241 80.088 54.0116C80.8109 56.3434 82.0753 57.9181 83.8813 58.7355ZM33.2313 73.9457C33.0507 73.994 32.8718 73.9759 32.6943 73.8914C32.5302 73.7845 32.4245 73.6432 32.3773 73.4674L27.774 56.3246C27.7221 56.1312 27.7427 55.9561 27.8361 55.7992C27.9294 55.6424 28.0753 55.5374 28.2739 55.4843L31.9834 54.4925C32.1819 54.4394 32.3609 54.4575 32.5203 54.5468C32.6978 54.6312 32.8125 54.7702 32.8644 54.9636L36.4621 68.3613L40.4153 67.3043L36.8176 53.9066C36.7657 53.7132 36.7864 53.5381 36.8797 53.3812C36.9911 53.2195 37.137 53.1145 37.3175 53.0663L41.027 52.0744C41.2256 52.0214 41.4046 52.0395 41.564 52.1287C41.7234 52.218 41.8291 52.3594 41.881 52.5528L45.4786 65.9505L49.4318 64.8935L45.8342 51.4958C45.7823 51.3024 45.8029 51.1273 45.8963 50.9704C46.0076 50.8087 46.1536 50.7038 46.3341 50.6555L50.0436 49.6637C50.2421 49.6106 50.4211 49.6287 50.5805 49.718C50.7399 49.8073 50.8456 49.9486 50.8976 50.142L55.5008 67.2847C55.5481 67.4606 55.5274 67.6357 55.4388 67.8102C55.3455 67.967 55.1995 68.072 55.001 68.1251L33.2313 73.9457ZM78.2276 60.9538C78.3007 61.0097 78.3537 61.0991 78.3868 61.2222C78.434 61.398 78.4109 61.5644 78.3176 61.7212C78.2376 61.8557 78.1164 61.9446 77.9539 61.9881L73.6758 63.1319C73.2426 63.2478 72.8795 63.1564 72.5865 62.8579L66.7816 57.3432L65.0216 57.8138L66.7567 64.2753C66.8086 64.4687 66.7789 64.6462 66.6675 64.8079C66.5742 64.9648 66.4283 65.0697 66.2297 65.1228L62.5202 66.1146C62.3216 66.1677 62.1426 66.1496 61.9832 66.0603C61.8238 65.971 61.7182 65.8297 61.6662 65.6363L57.07 48.5199C57.0181 48.3265 57.0388 48.1514 57.1321 47.9945C57.2207 47.8201 57.3642 47.7063 57.5628 47.6532L61.2723 46.6614C61.4709 46.6083 61.6522 46.6352 61.8164 46.7421C61.9938 46.8265 62.1085 46.9655 62.1604 47.1589L63.8389 53.4094L65.3552 53.004L67.5333 45.5527C67.6735 45.1383 67.9693 44.8708 68.4206 44.7502L72.5633 43.6425C72.7258 43.5991 72.8753 43.6156 73.012 43.6922C73.1486 43.7687 73.2382 43.8861 73.2807 44.0443C73.3137 44.1674 73.3059 44.2825 73.2573 44.3898L70.4011 53.7466L78.2276 60.9538ZM116.832 51.593C116.652 51.6413 116.473 51.6232 116.295 51.5387C116.131 51.4319 116.026 51.2905 115.978 51.1147L112.381 37.717L107.507 39.0201L108.102 41.2355C108.904 44.2245 109.329 46.5984 109.376 48.3573C109.422 50.1163 109.011 51.5361 108.14 52.6169C107.283 53.6753 105.83 54.4971 103.781 55.0825C103.601 55.1308 103.42 55.1039 103.237 55.0019C103.055 54.8998 102.941 54.7609 102.893 54.585L102.107 51.6576C102.008 51.2884 102.172 50.9995 102.6 50.7909C103.514 50.3769 103.983 49.4222 104.008 47.9271C104.032 46.4319 103.706 44.4272 103.031 41.9129L101.6 36.5854C101.549 36.392 101.569 36.2169 101.663 36.06C101.774 35.8984 101.929 35.791 102.127 35.7379L115.585 32.1398C115.783 32.0867 115.964 32.1136 116.129 32.2205C116.306 32.3049 116.421 32.4439 116.473 32.6373L121.069 49.7537C121.121 49.9471 121.091 50.1246 120.98 50.2863C120.886 50.4432 120.74 50.5481 120.542 50.6012L116.832 51.593ZM125.888 49.0022C126.043 49.0739 126.193 49.0904 126.337 49.0518L129.857 48.1107C130.29 47.9948 130.545 47.7194 130.622 47.2843L130.91 44.4654L138.004 42.5687L139.665 44.8663C139.95 45.2048 140.309 45.3162 140.742 45.2003L144.262 44.2592C144.406 44.2206 144.518 44.1341 144.598 43.9996C144.692 43.8427 144.719 43.694 144.682 43.5533C144.653 43.4478 144.623 43.3711 144.591 43.3232L133.742 28.1046C133.425 27.643 132.995 27.4846 132.454 27.6294L128.23 28.7588C127.688 28.9036 127.396 29.255 127.352 29.8132L125.583 48.4054C125.579 48.463 125.591 48.5445 125.62 48.65C125.657 48.7906 125.747 48.908 125.888 49.0022Z" fill="#212121"/>
<path fill-rule="evenodd" clip-rule="evenodd" d="M2.19105 40.8056C0.614566 41.2272 -0.320989 42.8441 0.101428 44.4172L13.8688 95.6872C14.2912 97.2603 15.9117 98.1938 17.4881 97.7723L36.5178 92.6843L33.6635 93.4474C35.2289 93.0289 36.8375 93.9464 37.2737 95.4994L45.951 127.814C46.3734 129.387 47.9938 130.32 49.5703 129.899L201.809 89.1944C203.385 88.7728 204.321 87.1559 203.899 85.5828L190.131 34.3128C189.709 32.7397 188.088 31.8062 186.512 32.2277L170.321 36.5566C168.75 36.968 167.138 36.0354 166.717 34.4674L158.049 2.18633C157.627 0.613243 156.006 -0.320297 154.43 0.101209L2.19105 40.8056ZM125.293 88.2829C123.518 88.7576 121.981 88.9046 120.683 88.7239C119.386 88.5432 118.346 88.1428 117.564 87.5226C116.783 86.9024 116.227 86.1559 115.896 85.2832L115.882 85.2305C115.844 85.0898 115.868 84.9611 115.951 84.8445C116.049 84.7054 116.169 84.6167 116.312 84.5784L119.971 83.6003C120.186 83.5428 120.368 83.5412 120.517 83.5955C120.661 83.6323 120.809 83.7154 120.959 83.8449C121.602 84.5961 122.66 84.7752 124.13 84.3821C125.062 84.1327 125.753 83.7691 126.201 83.2912C126.649 82.8133 126.791 82.2667 126.625 81.6513C126.456 81.0184 126.077 80.6108 125.49 80.4285C124.916 80.2239 124.172 80.2439 123.257 80.4884L121.267 81.0206C121.088 81.0685 120.907 81.0413 120.726 80.939C120.563 80.8319 120.455 80.6817 120.403 80.4883L119.801 78.2465C119.749 78.0531 119.767 77.8693 119.855 77.6951C119.961 77.5161 120.103 77.4026 120.283 77.3547L122.219 76.8369C122.972 76.6355 123.526 76.3366 123.881 75.9402C124.231 75.5263 124.324 75.0116 124.158 74.3962C124.012 73.8512 123.672 73.4803 123.139 73.2837C122.619 73.0647 121.964 73.0607 121.175 73.2716C120.422 73.473 119.843 73.7503 119.438 74.1035C119.051 74.452 118.852 74.8539 118.84 75.3095C118.793 75.4917 118.725 75.6323 118.636 75.7314C118.547 75.8305 118.404 75.9065 118.207 75.9592L114.468 76.9588C114.307 77.002 114.149 76.9876 113.995 76.9157C113.842 76.8437 113.752 76.7262 113.728 76.5632C113.502 75.0783 113.882 73.667 114.868 72.3292C115.872 70.9866 117.656 69.9725 120.221 69.2869C121.727 68.8841 123.109 68.7691 124.366 68.9418C125.641 69.1096 126.692 69.5165 127.519 70.1623C128.363 70.8032 128.913 71.5984 129.168 72.5479C129.371 73.3039 129.401 74.0592 129.258 74.8136C129.128 75.5456 128.734 76.2257 128.076 76.8539C129.131 77.0617 129.969 77.4973 130.589 78.1606C131.227 78.8192 131.664 79.588 131.9 80.4671C132.202 81.5924 132.137 82.6745 131.705 83.7134C131.268 84.7348 130.504 85.6458 129.412 86.4466C128.316 87.2297 126.942 87.8419 125.293 88.2829ZM91.7493 96.3187C91.7163 96.1956 91.6634 96.1061 91.5907 96.0502L83.8006 88.8332L86.6237 79.4852C86.6576 79.3254 86.6651 79.2103 86.6463 79.14C86.6038 78.9818 86.5146 78.8643 86.3786 78.7876C86.2427 78.7108 86.0851 78.6964 85.9058 78.7444L81.8174 79.8375C81.3332 79.967 81.0397 80.2339 80.9369 80.6383L78.7846 88.0826L77.3591 88.4638L75.6735 82.1869C75.6216 81.9935 75.5074 81.8544 75.3309 81.7697C75.1723 81.6802 74.9944 81.6618 74.7972 81.7145L71.3005 82.6494C71.1212 82.6974 70.9763 82.8021 70.8659 82.9635C70.7734 83.1201 70.7532 83.2952 70.8051 83.4886L72.4906 89.7654L71.0382 90.1538L65.444 84.7806C65.1165 84.4913 64.7285 84.4066 64.2803 84.5265L60.1918 85.6196C60.0305 85.6627 59.9101 85.7514 59.8309 85.8857C59.7516 86.02 59.7332 86.1662 59.7757 86.3244C59.804 86.4299 59.8593 86.5282 59.9414 86.6193L67.0703 93.3064L63.9401 103.443C63.9184 103.506 63.9265 103.607 63.9642 103.748C64.0115 103.924 64.1054 104.059 64.246 104.153C64.3999 104.225 64.5575 104.239 64.7189 104.196L68.9687 103.06C69.2197 102.993 69.3962 102.898 69.4981 102.777C69.6132 102.633 69.7033 102.468 69.7684 102.281L72.0057 94.6157L73.6733 94.1698L75.4084 100.631C75.4603 100.825 75.5656 100.966 75.7241 101.056C75.8827 101.145 76.0606 101.164 76.2579 101.111L79.7545 100.176C79.9518 100.123 80.0966 100.019 80.1891 99.8619C80.2995 99.7004 80.3288 99.523 80.2768 99.3296L78.5417 92.8681L80.2094 92.4222L85.9876 97.944C86.2793 98.243 86.6403 98.3349 87.0706 98.2198L91.2935 97.0907C91.4729 97.0428 91.6021 96.9517 91.6814 96.8174C91.7739 96.6608 91.7965 96.4945 91.7493 96.3187ZM95.7943 95.6895C95.9528 95.779 96.1307 95.7974 96.328 95.7447L99.6364 94.8601C99.8695 94.7978 100.037 94.7058 100.139 94.5844C100.259 94.4581 100.351 94.3015 100.416 94.1145L105.135 82.0549L107.798 91.9713C107.849 92.1647 107.955 92.3062 108.113 92.3957C108.29 92.4804 108.477 92.4964 108.674 92.4437L112.359 91.4584C112.556 91.4057 112.701 91.301 112.793 91.1444C112.881 90.9702 112.901 90.7951 112.854 90.6193L108.258 73.5029C108.206 73.3095 108.101 73.1681 107.942 73.0786C107.779 72.9715 107.599 72.9443 107.401 72.997L104.093 73.8816C103.699 73.9871 103.439 74.2356 103.313 74.6272L98.7081 87.1087L95.939 76.7967C95.8871 76.6033 95.7729 76.4642 95.5964 76.3795C95.4331 76.2724 95.2528 76.2452 95.0555 76.298L91.3975 77.276C91.2002 77.3288 91.0488 77.4447 90.9431 77.6237C90.8506 77.7803 90.8304 77.9553 90.8823 78.1487L95.4714 95.2387C95.5234 95.4321 95.631 95.5824 95.7943 95.6895ZM137.701 84.4849C137.859 84.5744 138.037 84.5928 138.234 84.54L141.919 83.5548C142.117 83.502 142.261 83.3973 142.354 83.2407C142.464 83.0793 142.494 82.9018 142.442 82.7084L140.707 76.247L147.054 74.5497L148.789 81.0112C148.841 81.2046 148.947 81.3461 149.105 81.4356C149.282 81.5203 149.469 81.5363 149.666 81.4836L153.324 80.5055C153.521 80.4528 153.666 80.3481 153.758 80.1915C153.869 80.03 153.898 79.8526 153.846 79.6592L149.25 62.5428C149.198 62.3494 149.084 62.2104 148.907 62.1256C148.744 62.0185 148.564 61.9914 148.366 62.0441L144.708 63.0222C144.511 63.0749 144.36 63.1908 144.254 63.3698C144.162 63.5264 144.141 63.7015 144.193 63.8949L145.872 70.1454L139.524 71.8426L137.845 65.5921C137.793 65.3987 137.679 65.2596 137.503 65.1749C137.339 65.0678 137.159 65.0406 136.962 65.0934L133.277 66.0786C133.08 66.1313 132.937 66.2448 132.85 66.419C132.757 66.5757 132.737 66.7507 132.789 66.9441L137.385 84.0605C137.437 84.2539 137.542 84.3953 137.701 84.4849ZM159.7 78.8008C159.503 78.8535 159.325 78.8351 159.166 78.7456C159.003 78.6385 158.895 78.4882 158.843 78.2948L154.254 61.2048C154.202 61.0114 154.222 60.8364 154.315 60.6798C154.421 60.5008 154.572 60.3849 154.769 60.3322L158.427 59.3541C158.625 59.3014 158.805 59.3285 158.968 59.4356C159.145 59.5203 159.259 59.6594 159.311 59.8528L162.08 70.1648L166.685 57.6833C166.81 57.2917 167.07 57.0432 167.465 56.9377L170.773 56.0531C170.971 56.0004 171.151 56.0276 171.314 56.1347C171.473 56.2242 171.578 56.3656 171.63 56.559L176.226 73.6754C176.273 73.8512 176.253 74.0263 176.165 74.2005C176.073 74.3571 175.928 74.4618 175.731 74.5145L172.046 75.4998C171.849 75.5525 171.662 75.5365 171.485 75.4518C171.327 75.3623 171.221 75.2208 171.169 75.0274L168.507 65.111L163.788 77.1706C163.723 77.3576 163.631 77.5142 163.511 77.6405C163.409 77.7619 163.241 77.8539 163.008 77.9162L159.7 78.8008ZM83.8813 58.7355C85.6873 59.5529 87.8719 59.619 90.4352 58.9336C92.9984 58.2483 94.8482 57.1035 95.9846 55.4994C97.139 53.8905 97.4451 51.8959 96.9026 49.5158C96.6744 48.5215 96.4894 47.7606 96.3477 47.2332C96.2108 46.7233 95.9874 45.9633 95.6775 44.9532C94.982 42.6516 93.7086 41.0794 91.8571 40.2364C90.0189 39.3711 87.8452 39.2739 85.3361 39.9447C82.809 40.6204 80.9572 41.7939 79.7808 43.4653C78.6178 45.1142 78.3118 47.1088 78.8628 49.4489C78.9817 49.9637 79.178 50.7309 79.4518 51.7507C79.7257 52.7704 79.9377 53.5241 80.088 54.0116C80.8109 56.3434 82.0753 57.9181 83.8813 58.7355ZM33.2313 73.9457C33.0507 73.994 32.8718 73.9759 32.6943 73.8914C32.5302 73.7845 32.4245 73.6432 32.3773 73.4674L27.774 56.3246C27.7221 56.1312 27.7427 55.9561 27.8361 55.7992C27.9294 55.6424 28.0753 55.5374 28.2739 55.4843L31.9834 54.4925C32.1819 54.4394 32.3609 54.4575 32.5203 54.5468C32.6978 54.6312 32.8125 54.7702 32.8644 54.9636L36.4621 68.3613L40.4153 67.3043L36.8176 53.9066C36.7657 53.7132 36.7864 53.5381 36.8797 53.3812C36.9911 53.2195 37.137 53.1145 37.3175 53.0663L41.027 52.0744C41.2256 52.0214 41.4046 52.0395 41.564 52.1287C41.7234 52.218 41.8291 52.3594 41.881 52.5528L45.4786 65.9505L49.4318 64.8935L45.8342 51.4958C45.7823 51.3024 45.8029 51.1273 45.8963 50.9704C46.0076 50.8087 46.1536 50.7038 46.3341 50.6555L50.0436 49.6637C50.2421 49.6106 50.4211 49.6287 50.5805 49.718C50.7399 49.8073 50.8456 49.9486 50.8976 50.142L55.5008 67.2847C55.5481 67.4606 55.5274 67.6357 55.4388 67.8102C55.3455 67.967 55.1995 68.072 55.001 68.1251L33.2313 73.9457ZM78.2276 60.9538C78.3007 61.0097 78.3537 61.0991 78.3868 61.2222C78.434 61.398 78.4109 61.5644 78.3176 61.7212C78.2376 61.8557 78.1164 61.9446 77.9539 61.9881L73.6758 63.1319C73.2426 63.2478 72.8795 63.1564 72.5865 62.8579L66.7816 57.3432L65.0216 57.8138L66.7567 64.2753C66.8086 64.4687 66.7789 64.6462 66.6675 64.8079C66.5742 64.9648 66.4283 65.0697 66.2297 65.1228L62.5202 66.1146C62.3216 66.1677 62.1426 66.1496 61.9832 66.0603C61.8238 65.971 61.7182 65.8297 61.6662 65.6363L57.07 48.5199C57.0181 48.3265 57.0388 48.1514 57.1321 47.9945C57.2207 47.8201 57.3642 47.7063 57.5628 47.6532L61.2723 46.6614C61.4709 46.6083 61.6522 46.6352 61.8164 46.7421C61.9938 46.8265 62.1085 46.9655 62.1604 47.1589L63.8389 53.4094L65.3552 53.004L67.5333 45.5527C67.6735 45.1383 67.9693 44.8708 68.4206 44.7502L72.5633 43.6425C72.7258 43.5991 72.8753 43.6156 73.012 43.6922C73.1486 43.7687 73.2382 43.8861 73.2807 44.0443C73.3137 44.1674 73.3059 44.2825 73.2573 44.3898L70.4011 53.7466L78.2276 60.9538ZM116.832 51.593C116.652 51.6413 116.473 51.6232 116.295 51.5387C116.131 51.4319 116.026 51.2905 115.978 51.1147L112.381 37.717L107.507 39.0201L108.102 41.2355C108.904 44.2245 109.329 46.5984 109.376 48.3573C109.422 50.1163 109.011 51.5361 108.14 52.6169C107.283 53.6753 105.83 54.4971 103.781 55.0825C103.601 55.1308 103.42 55.1039 103.237 55.0019C103.055 54.8998 102.941 54.7609 102.893 54.585L102.107 51.6576C102.008 51.2884 102.172 50.9995 102.6 50.7909C103.514 50.3769 103.983 49.4222 104.008 47.9271C104.032 46.4319 103.706 44.4272 103.031 41.9129L101.6 36.5854C101.549 36.392 101.569 36.2169 101.663 36.06C101.774 35.8984 101.929 35.791 102.127 35.7379L115.585 32.1398C115.783 32.0867 115.964 32.1136 116.129 32.2205C116.306 32.3049 116.421 32.4439 116.473 32.6373L121.069 49.7537C121.121 49.9471 121.091 50.1246 120.98 50.2863C120.886 50.4432 120.74 50.5481 120.542 50.6012L116.832 51.593ZM125.888 49.0022C126.043 49.0739 126.193 49.0904 126.337 49.0518L129.857 48.1107C130.29 47.9948 130.545 47.7194 130.622 47.2843L130.91 44.4654L138.004 42.5687L139.665 44.8663C139.95 45.2048 140.309 45.3162 140.742 45.2003L144.262 44.2592C144.406 44.2206 144.518 44.1341 144.598 43.9996C144.692 43.8427 144.719 43.694 144.682 43.5533C144.653 43.4478 144.623 43.3711 144.591 43.3232L133.742 28.1046C133.425 27.643 132.995 27.4846 132.454 27.6294L128.23 28.7588C127.688 28.9036 127.396 29.255 127.352 29.8132L125.583 48.4054C125.579 48.463 125.591 48.5445 125.62 48.65C125.657 48.7906 125.747 48.908 125.888 49.0022Z" fill="white"/>
</svg>
