<svg width="140" height="70" viewBox="0 0 140 70" fill="none" xmlns="http://www.w3.org/2000/svg">
<rect x="0.5" y="0.5" width="139" height="69" rx="4.5" fill="white" stroke="#F0F0F0"/>
<path d="M41.9829 23.3834C41.0219 24.5319 39.4842 25.4377 37.9465 25.3083C37.7543 23.7555 38.5072 22.1056 39.3881 21.0866C40.3492 19.9058 42.031 19.0647 43.3925 19C43.5527 20.6175 42.928 22.2027 41.9829 23.3834ZM43.3765 25.6156C41.15 25.4862 39.244 26.8934 38.1868 26.8934C37.1136 26.8934 35.4959 25.6803 33.734 25.7127C31.4435 25.745 29.3131 27.0552 28.1439 29.1418C25.7412 33.3149 27.5192 39.4938 29.8417 42.8906C30.979 44.5728 32.3404 46.4167 34.1344 46.352C35.8322 46.2873 36.505 45.236 38.5552 45.236C40.6215 45.236 41.2141 46.352 43.0081 46.3197C44.8661 46.2873 46.0354 44.6375 47.1726 42.9553C48.47 41.0466 48.9986 39.1865 49.0306 39.0894C48.9986 39.0571 45.4427 37.6822 45.4107 33.5414C45.3786 30.0799 48.2137 28.4301 48.3419 28.333C46.7401 25.9391 44.2414 25.6803 43.3765 25.6156ZM56.2385 20.9248V46.1418H60.1147V37.5205H65.4806C70.3819 37.5205 73.8257 34.1237 73.8257 29.2065C73.8257 24.2892 70.446 20.9248 65.6087 20.9248H56.2385ZM60.1147 24.2245H64.5836C67.9472 24.2245 69.8693 26.0362 69.8693 29.2226C69.8693 32.4091 67.9473 34.2369 64.5676 34.2369H60.1147V24.2245ZM80.9054 46.3359C83.34 46.3359 85.5985 45.0904 86.6236 43.117H86.7037V46.1418H90.2916V33.5899C90.2916 29.9505 87.4085 27.6051 82.9716 27.6051C78.8551 27.6051 75.8118 29.9829 75.6997 33.2502H79.1915C79.4798 31.6974 80.9054 30.6784 82.8595 30.6784C85.2301 30.6784 86.5595 31.7945 86.5595 33.8487V35.2398L81.7223 35.5309C77.2214 35.8059 74.7867 37.666 74.7867 40.901C74.7867 44.1684 77.3014 46.3359 80.9054 46.3359ZM81.9465 43.3435C79.8803 43.3435 78.5668 42.3406 78.5668 40.804C78.5668 39.2188 79.8322 38.2969 82.2508 38.1513L86.5595 37.8763V39.2997C86.5595 41.6613 84.5734 43.3435 81.9465 43.3435ZM95.0808 53C98.8609 53 100.639 51.5442 102.193 47.1284L109 27.8478H105.06L100.495 42.745H100.415L95.8497 27.8478H91.7972L98.3644 46.2065L98.012 47.3226C97.4194 49.215 96.4583 49.9429 94.7445 49.9429C94.4401 49.9429 93.8475 49.9106 93.6072 49.8782V52.903C93.8315 52.9677 94.7925 53 95.0808 53Z" fill="#111115"/>
</svg>
