<svg width="20" height="21" viewBox="0 0 20 21" fill="none" xmlns="http://www.w3.org/2000/svg">
<path d="M1.4881 2.54076H3.125V1.4512C3.125 0.649731 3.79125 0 4.6131 0H4.67262C5.49446 0 6.16071 0.649731 6.16071 1.4512V2.54076H13.8393V1.4512C13.8393 0.649731 14.5055 0 15.3274 0H15.3869C16.2087 0 16.875 0.649731 16.875 1.4512V2.54076H18.5119C19.3338 2.54076 20 3.19049 20 3.99196V19.5488C20 20.3504 19.3338 21 18.5119 21H1.4881C0.66625 21 0 20.3504 0 19.5488V3.99196C0 3.19049 0.66631 2.54076 1.4881 2.54076ZM2.5 18.7071H17.5V6.92338H2.5V18.7071Z" fill="white"/>
<path d="M15.4613 12.2559H12.8721C12.7406 12.2559 12.634 12.1519 12.634 12.0237V9.49873C12.634 9.3705 12.7406 9.26654 12.8721 9.26654H15.4613C15.5927 9.26654 15.6993 9.3705 15.6993 9.49873V12.0237C15.6993 12.1519 15.5927 12.2559 15.4613 12.2559Z" fill="white"/>
<path d="M11.2946 12.2559H8.70542C8.57393 12.2559 8.46732 12.1519 8.46732 12.0237V9.49873C8.46732 9.3705 8.57393 9.26654 8.70542 9.26654H11.2946C11.4261 9.26654 11.5327 9.3705 11.5327 9.49873V12.0237C11.5327 12.1519 11.4261 12.2559 11.2946 12.2559Z" fill="white"/>
<path d="M7.12792 12.2559H4.53875C4.40726 12.2559 4.30065 12.1519 4.30065 12.0237V9.49873C4.30065 9.3705 4.40726 9.26654 4.53875 9.26654H7.12792C7.2594 9.26654 7.36601 9.3705 7.36601 9.49873V12.0237C7.36601 12.1519 7.2594 12.2559 7.12792 12.2559Z" fill="white"/>
<path d="M15.4613 16.3192H12.8721C12.7406 16.3192 12.634 16.2153 12.634 16.0871V13.5621C12.634 13.4339 12.7406 13.3299 12.8721 13.3299H15.4613C15.5927 13.3299 15.6993 13.4339 15.6993 13.5621V16.0871C15.6993 16.2153 15.5927 16.3192 15.4613 16.3192Z" fill="white"/>
<path d="M11.2946 16.3192H8.70542C8.57393 16.3192 8.46732 16.2153 8.46732 16.0871V13.5621C8.46732 13.4339 8.57393 13.3299 8.70542 13.3299H11.2946C11.4261 13.3299 11.5327 13.4339 11.5327 13.5621V16.0871C11.5327 16.2153 11.4261 16.3192 11.2946 16.3192Z" fill="white"/>
<path d="M7.12792 16.3192H4.53875C4.40726 16.3192 4.30065 16.2153 4.30065 16.0871V13.5621C4.30065 13.4339 4.40726 13.3299 4.53875 13.3299H7.12792C7.2594 13.3299 7.36601 13.4339 7.36601 13.5621V16.0871C7.36601 16.2153 7.2594 16.3192 7.12792 16.3192Z" fill="white"/>
</svg>
