<svg width="40" height="40" viewBox="0 0 40 40" fill="none" xmlns="http://www.w3.org/2000/svg">
<g opacity="0.3">
<path d="M2.05691 40C1.53 40 1.00309 39.7996 0.602758 39.3963C-0.200919 38.5926 -0.200919 37.2897 0.602758 36.486L36.4869 0.602742C37.2906 -0.200914 38.5936 -0.200914 39.3972 0.602742C40.2009 1.4064 40.2009 2.70933 39.3972 3.51349L3.51357 39.3963C3.11023 39.7971 2.58332 40 2.05691 40Z" fill="white"/>
<path d="M37.9436 40C37.4167 40 36.8903 39.7996 36.4894 39.3963L0.602758 3.51349C-0.200919 2.70933 -0.200919 1.4064 0.602758 0.602742C1.40643 -0.200914 2.7094 -0.200914 3.51357 0.602742L39.3972 36.486C40.2009 37.2897 40.2009 38.5926 39.3972 39.3963C38.9939 39.7971 38.4675 40 37.9436 40Z" fill="white"/>
</g>
</svg>
