<svg width="200" height="17" viewBox="0 0 200 17" fill="none" xmlns="http://www.w3.org/2000/svg">
<path d="M0.588607 16.7639C0.431645 16.7639 0.29038 16.7088 0.16481 16.5986C0.0549367 16.4727 7.06242e-08 16.331 6.99434e-08 16.1736L3.57375e-09 0.826389C2.82497e-09 0.653241 0.0549366 0.511574 0.16481 0.401389C0.274683 0.291204 0.415949 0.236111 0.588607 0.236111L3.81417 0.236111C3.98683 0.236111 4.1281 0.291204 4.23797 0.401389C4.36354 0.511574 4.42632 0.653241 4.42632 0.826389L4.42632 12.8208L7.86379 12.8208L7.86379 0.826389C7.86379 0.653241 7.91873 0.511574 8.0286 0.401389C8.15417 0.291204 8.29543 0.236111 8.4524 0.236111L11.678 0.236111C11.8506 0.236111 11.9919 0.291204 12.1018 0.401389C12.2116 0.511574 12.2666 0.653241 12.2666 0.826389L12.2666 12.8208L15.704 12.8208L15.704 0.826389C15.704 0.653241 15.759 0.511574 15.8688 0.401389C15.9944 0.291204 16.1357 0.236111 16.2926 0.236111L19.5182 0.236111C19.6909 0.236111 19.8321 0.291204 19.942 0.401389C20.0519 0.511574 20.1068 0.653241 20.1068 0.826389L20.1068 16.1736C20.1068 16.331 20.0519 16.4727 19.942 16.5986C19.8321 16.7088 19.6909 16.7639 19.5182 16.7639L0.588607 16.7639Z" fill="#252A34"/>
<path d="M38.9478 15.9611C38.9948 16.0241 39.0184 16.1106 39.0184 16.2208C39.0184 16.3782 38.9635 16.512 38.8536 16.6222C38.7594 16.7167 38.6417 16.7639 38.5004 16.7639L34.7804 16.7639C34.4037 16.7639 34.129 16.6065 33.9564 16.2917L30.4483 10.3889L28.9179 10.3889L28.9179 16.1736C28.9179 16.3468 28.8551 16.4884 28.7295 16.5986C28.6197 16.7088 28.4784 16.7639 28.3057 16.7639L25.0802 16.7639C24.9075 16.7639 24.7663 16.7088 24.6564 16.5986C24.5465 16.4884 24.4916 16.3468 24.4916 16.1736L24.4916 0.85C24.4916 0.676851 24.5465 0.535185 24.6564 0.425C24.7663 0.299074 24.9075 0.236111 25.0802 0.236111L28.3057 0.236111C28.4784 0.236111 28.6197 0.299074 28.7295 0.425C28.8551 0.535185 28.9179 0.676851 28.9179 0.85L28.9179 6.44583L30.2364 6.44583L33.6268 0.708334C33.8308 0.393518 34.129 0.236111 34.5214 0.236111L38.1237 0.236111C38.265 0.236111 38.3827 0.283333 38.4769 0.377778C38.571 0.472223 38.6181 0.590278 38.6181 0.731945C38.6181 0.842129 38.5867 0.936574 38.524 1.01528L34.1683 8.19306L38.9478 15.9611Z" fill="#252A34"/>
<path d="M48.3154 17C46.0866 17 44.3286 16.4569 43.0415 15.3708C41.7544 14.2847 41.0716 12.687 40.9932 10.5778C40.9775 10.137 40.9696 9.46018 40.9696 8.54722C40.9696 7.63426 40.9775 6.94954 40.9932 6.49306C41.056 4.41528 41.7387 2.81759 43.0415 1.7C44.36 0.566667 46.118 -1.99439e-07 48.3154 -2.08942e-07C50.4972 -2.18377e-07 52.2395 0.566667 53.5423 1.7C54.8607 2.81759 55.5514 4.41528 55.6142 6.49306C55.6456 7.40602 55.6613 8.09074 55.6613 8.54722C55.6613 9.01944 55.6456 9.6963 55.6142 10.5778C55.5357 12.687 54.8529 14.2847 53.5658 15.3708C52.2944 16.4569 50.5443 17 48.3154 17ZM48.3154 13.4583C49.1316 13.4583 49.783 13.2144 50.2696 12.7264C50.7562 12.2227 51.0152 11.4593 51.0466 10.4361C51.078 9.52315 51.0937 8.86991 51.0937 8.47639C51.0937 8.08287 51.078 7.44537 51.0466 6.56389C51.0152 5.54074 50.7562 4.78519 50.2696 4.29722C49.783 3.79352 49.1316 3.54167 48.3154 3.54167C47.4835 3.54167 46.8243 3.79352 46.3377 4.29722C45.8511 4.78519 45.5921 5.54074 45.5608 6.56389C45.5451 7.00463 45.5372 7.64213 45.5372 8.47639C45.5372 9.32639 45.5451 9.97963 45.5608 10.4361C45.5921 11.4593 45.8511 12.2227 46.3377 12.7264C46.8243 13.2144 47.4835 13.4583 48.3154 13.4583Z" fill="#252A34"/>
<path d="M70.3542 16.7639C70.1972 16.7639 70.0559 16.7088 69.9304 16.5986C69.8205 16.4727 69.7656 16.331 69.7656 16.1736L69.7656 4.17917L65.5276 4.17917L65.5276 6.1625C65.5276 8.83843 65.3549 10.9162 65.0096 12.3958C64.6643 13.8755 64.0208 14.9694 63.079 15.6778C62.1529 16.3704 60.7952 16.7324 59.0058 16.7639C58.8489 16.7639 58.7076 16.7009 58.582 16.575C58.4565 16.4491 58.3937 16.3074 58.3937 16.15L58.3937 13.5292C58.3937 13.1986 58.5899 12.994 58.9823 12.9153C59.8142 12.7736 60.4028 12.081 60.7481 10.8375C61.0934 9.59398 61.2661 7.84676 61.2661 5.59583L61.2661 0.826389C61.2661 0.65324 61.321 0.511574 61.4309 0.401389C61.5565 0.291203 61.7056 0.236111 61.8782 0.236111L73.5797 0.236111C73.7524 0.236111 73.8937 0.299074 74.0035 0.425C74.1291 0.535185 74.1919 0.676851 74.1919 0.85L74.1919 16.1736C74.1919 16.3468 74.1291 16.4884 74.0035 16.5986C73.8937 16.7088 73.7524 16.7639 73.5797 16.7639L70.3542 16.7639Z" fill="#252A34"/>
<path d="M77.6424 16.7639C77.5168 16.7639 77.3991 16.7167 77.2892 16.6222C77.1951 16.512 77.148 16.394 77.148 16.2681C77.148 16.1736 77.1558 16.1028 77.1715 16.0556L82.6573 0.920834C82.8143 0.464352 83.1282 0.236111 83.5991 0.236111L87.272 0.23611C87.7429 0.23611 88.0568 0.464352 88.2138 0.920834L93.6996 16.0556C93.7153 16.1028 93.7232 16.1736 93.7232 16.2681C93.7232 16.394 93.6682 16.512 93.5583 16.6222C93.4642 16.7167 93.3543 16.7639 93.2287 16.7639L90.168 16.7639C89.7913 16.7639 89.5244 16.5907 89.3675 16.2444L88.5199 13.9542L82.3513 13.9542L81.5037 16.2444C81.3467 16.5907 81.0799 16.7639 80.7032 16.7639L77.6424 16.7639ZM83.3401 10.4125L87.531 10.4125L85.4356 4.39167L83.3401 10.4125Z" fill="#252A34"/>
<path d="M125.971 15.9611C126.019 16.0241 126.042 16.1106 126.042 16.2208C126.042 16.3782 125.987 16.512 125.877 16.6222C125.783 16.7167 125.658 16.7639 125.501 16.7639L121.804 16.7639C121.427 16.7639 121.153 16.6065 120.98 16.2917L117.472 10.3889L116.012 10.3889L116.012 16.1736C116.012 16.3468 115.949 16.4884 115.824 16.5986C115.714 16.7088 115.573 16.7639 115.4 16.7639L112.339 16.7639C112.167 16.7639 112.025 16.7088 111.916 16.5986C111.806 16.4884 111.751 16.3468 111.751 16.1736L111.751 10.3889L110.291 10.3889L106.783 16.2917C106.689 16.4333 106.579 16.5514 106.453 16.6458C106.343 16.7245 106.179 16.7639 105.959 16.7639L102.239 16.7639C102.098 16.7639 101.972 16.7167 101.862 16.6222C101.768 16.512 101.721 16.3782 101.721 16.2208C101.721 16.0949 101.737 16.0083 101.768 15.9611L106.547 8.19306L102.192 1.01528C102.145 0.920833 102.121 0.826389 102.121 0.731944C102.121 0.590278 102.168 0.472222 102.262 0.377778C102.357 0.283333 102.474 0.23611 102.616 0.23611L106.194 0.23611C106.587 0.23611 106.885 0.393518 107.089 0.708334L110.479 6.44583L111.751 6.44583L111.751 0.826389C111.751 0.65324 111.806 0.511574 111.916 0.401389C112.041 0.291203 112.182 0.23611 112.339 0.23611L115.4 0.23611C115.573 0.23611 115.714 0.291203 115.824 0.401389C115.949 0.511574 116.012 0.65324 116.012 0.826389L116.012 6.44583L117.26 6.44583L120.65 0.708334C120.823 0.393518 121.121 0.23611 121.545 0.23611L125.124 0.23611C125.281 0.23611 125.406 0.283333 125.501 0.377778C125.595 0.472222 125.642 0.590278 125.642 0.731944C125.642 0.794907 125.61 0.889352 125.548 1.01528L121.192 8.19306L125.971 15.9611Z" fill="#252A34"/>
<path d="M129.907 16.7639C129.735 16.7639 129.593 16.7088 129.484 16.5986C129.374 16.4727 129.319 16.3231 129.319 16.15L129.319 0.85C129.319 0.676851 129.374 0.535184 129.484 0.425C129.609 0.299073 129.758 0.23611 129.931 0.23611L133.133 0.23611C133.306 0.23611 133.447 0.299073 133.557 0.425C133.682 0.535184 133.745 0.676851 133.745 0.85L133.745 10.0819L140.243 0.684721C140.432 0.385647 140.699 0.23611 141.044 0.23611L143.94 0.23611C144.112 0.23611 144.254 0.299073 144.364 0.425C144.473 0.535184 144.528 0.676851 144.528 0.85L144.528 16.1736C144.528 16.331 144.473 16.4727 144.364 16.5986C144.254 16.7088 144.112 16.7639 143.94 16.7639L140.714 16.7639C140.542 16.7639 140.392 16.7088 140.267 16.5986C140.157 16.4884 140.102 16.3468 140.102 16.1736L140.102 7.29583L133.604 16.3153C133.51 16.4569 133.4 16.5671 133.274 16.6458C133.164 16.7245 133.007 16.7639 132.803 16.7639L129.907 16.7639Z" fill="#252A34"/>
<path d="M155.199 17C153.645 17 152.358 16.7796 151.338 16.3389C150.318 15.8981 149.557 15.3315 149.054 14.6389C148.552 13.9463 148.262 13.1986 148.183 12.3958L148.183 12.3486C148.183 12.2227 148.23 12.1204 148.324 12.0417C148.434 11.9472 148.552 11.9 148.678 11.9L151.88 11.9C152.068 11.9 152.217 11.9394 152.327 12.0181C152.437 12.081 152.539 12.1833 152.633 12.325C152.994 13.0963 153.818 13.4819 155.105 13.4819C155.921 13.4819 156.565 13.3324 157.036 13.0333C157.507 12.7343 157.742 12.3093 157.742 11.7583C157.742 11.1917 157.522 10.7667 157.083 10.4833C156.659 10.1843 156.047 10.0347 155.246 10.0347L153.504 10.0347C153.347 10.0347 153.206 9.97176 153.08 9.84583C152.97 9.71991 152.915 9.57037 152.915 9.39722L152.915 7.39028C152.915 7.21713 152.97 7.06759 153.08 6.94167C153.206 6.81574 153.347 6.75278 153.504 6.75278L155.199 6.75278C155.859 6.75278 156.376 6.62685 156.753 6.375C157.13 6.10741 157.318 5.69815 157.318 5.14722C157.318 4.65926 157.122 4.27361 156.73 3.99028C156.353 3.6912 155.819 3.54167 155.129 3.54167C154.469 3.54167 153.936 3.64398 153.528 3.84861C153.135 4.05324 152.884 4.34444 152.774 4.72222C152.696 4.86389 152.609 4.9662 152.515 5.02917C152.421 5.09213 152.288 5.12361 152.115 5.12361L148.842 5.12361C148.701 5.12361 148.576 5.07639 148.466 4.98194C148.356 4.8875 148.309 4.76944 148.324 4.62778C148.466 3.33704 149.086 2.24305 150.184 1.34583C151.299 0.44861 152.978 -6.61561e-07 155.223 -6.71267e-07C156.541 -6.76969e-07 157.695 0.212499 158.684 0.6375C159.688 1.0625 160.458 1.63704 160.991 2.36111C161.541 3.08518 161.815 3.87222 161.815 4.72222C161.815 5.39907 161.674 6.03657 161.391 6.63472C161.125 7.21713 160.654 7.69722 159.979 8.075C160.795 8.48426 161.384 9.03518 161.745 9.72778C162.121 10.4204 162.31 11.1602 162.31 11.9472C162.31 12.9546 162.019 13.844 161.439 14.6153C160.858 15.3708 160.034 15.9611 158.966 16.3861C157.899 16.7954 156.643 17 155.199 17Z" fill="#252A34"/>
<path d="M166.59 16.7639C166.417 16.7639 166.276 16.7088 166.166 16.5986C166.056 16.4884 166.001 16.3468 166.001 16.1736L166.001 0.85C166.001 0.676851 166.056 0.535184 166.166 0.424999C166.276 0.299073 166.417 0.23611 166.59 0.23611L169.815 0.23611C169.988 0.23611 170.129 0.299073 170.239 0.424999C170.365 0.535184 170.427 0.676851 170.427 0.85L170.427 6.44583L175.984 6.44583L175.984 0.85C175.984 0.676851 176.039 0.535184 176.149 0.424999C176.274 0.299073 176.423 0.23611 176.596 0.23611L179.798 0.23611C179.971 0.23611 180.112 0.299073 180.222 0.424999C180.347 0.535184 180.41 0.676851 180.41 0.849999L180.41 16.1736C180.41 16.3468 180.347 16.4884 180.222 16.5986C180.112 16.7088 179.971 16.7639 179.798 16.7639L176.596 16.7639C176.423 16.7639 176.274 16.7088 176.149 16.5986C176.039 16.4884 175.984 16.3468 175.984 16.1736L175.984 10.3889L170.427 10.3889L170.427 16.1736C170.427 16.3468 170.365 16.4884 170.239 16.5986C170.129 16.7088 169.988 16.7639 169.815 16.7639L166.59 16.7639Z" fill="#252A34"/>
<path d="M185.379 16.7639C185.206 16.7639 185.065 16.7088 184.955 16.5986C184.845 16.4727 184.79 16.3231 184.79 16.15L184.79 0.849999C184.79 0.676851 184.845 0.535184 184.955 0.424999C185.081 0.299073 185.23 0.23611 185.403 0.23611L188.605 0.23611C188.777 0.23611 188.918 0.299073 189.028 0.424999C189.154 0.535184 189.217 0.676851 189.217 0.849999L189.217 10.0819L195.715 0.684721C195.903 0.385647 196.17 0.23611 196.515 0.23611L199.411 0.23611C199.584 0.23611 199.725 0.299073 199.835 0.424999C199.945 0.535184 200 0.676851 200 0.849999L200 16.1736C200 16.331 199.945 16.4727 199.835 16.5986C199.725 16.7088 199.584 16.7639 199.411 16.7639L196.186 16.7639C196.013 16.7639 195.864 16.7088 195.738 16.5986C195.629 16.4884 195.574 16.3468 195.574 16.1736L195.574 7.29583L189.075 16.3153C188.981 16.4569 188.871 16.5671 188.746 16.6458C188.636 16.7245 188.479 16.7639 188.275 16.7639L185.379 16.7639Z" fill="#252A34"/>
</svg>
