<svg width="140" height="70" viewBox="0 0 140 70" fill="none" xmlns="http://www.w3.org/2000/svg">
<rect x="0.5" y="0.5" width="139" height="69" rx="4.5" fill="white" stroke="#F0F0F0"/>
<path d="M67.145 35.6116V45.5772H63.9324V20.9665H72.4528C73.4699 20.9456 74.4811 21.1231 75.428 21.4888C76.375 21.8545 77.239 22.4011 77.9702 23.0971C78.7088 23.7508 79.2965 24.5526 79.6941 25.4484C80.0916 26.3443 80.2897 27.3135 80.2749 28.291C80.2961 29.2737 80.1011 30.2492 79.7032 31.1508C79.3054 32.0524 78.7143 32.8587 77.9702 33.5144C76.4803 34.9125 74.6412 35.6109 72.4528 35.6096H67.145V35.6116ZM67.145 23.9964V32.5875H72.5327C73.1233 32.6047 73.7111 32.5005 74.2585 32.2814C74.8058 32.0622 75.3007 31.7331 75.7114 31.315C76.1199 30.9242 76.4447 30.4566 76.6665 29.9401C76.8882 29.4235 77.0025 28.8684 77.0025 28.3077C77.0025 27.7469 76.8882 27.1919 76.6665 26.6753C76.4447 26.1588 76.1199 25.6912 75.7114 25.3003C75.3058 24.8734 74.8127 24.5362 74.2647 24.3111C73.7167 24.086 73.1263 23.9781 72.5327 23.9945H67.145V23.9964Z" fill="#5F6368"/>
<path d="M87.6778 28.1875C90.0524 28.1875 91.9268 28.812 93.3009 30.061C94.6751 31.3099 95.3616 33.0224 95.3602 35.1983V45.5769H92.2873V43.24H92.1476C90.8173 45.1645 89.048 46.1268 86.8398 46.1268C84.9548 46.1268 83.3777 45.5769 82.1086 44.4772C81.4996 43.9725 81.0126 43.3403 80.6833 42.6269C80.354 41.9135 80.1906 41.1367 80.205 40.3532C80.205 38.6107 80.8741 37.2249 82.2124 36.1959C83.5506 35.1668 85.3372 34.651 87.5721 34.6484C89.4797 34.6484 91.0508 34.9921 92.2853 35.6794V34.9567C92.2889 34.4226 92.1717 33.8944 91.9422 33.4103C91.7127 32.9263 91.3766 32.4986 90.9583 32.1583C90.1088 31.404 89.0016 30.9924 87.8574 31.0055C86.0629 31.0055 84.6428 31.7505 83.5972 33.2403L80.7677 31.4867C82.3241 29.2872 84.6275 28.1875 87.6778 28.1875ZM83.5214 40.422C83.5192 40.8243 83.6148 41.2214 83.8001 41.5801C83.9855 41.9388 84.2552 42.2486 84.5869 42.4839C85.2975 43.034 86.1794 43.3254 87.0832 43.3087C88.4389 43.3065 89.7384 42.7755 90.6969 41.832C91.7611 40.8461 92.2933 39.6895 92.2933 38.3619C91.2916 37.5764 89.8948 37.1837 88.1029 37.1837C86.7979 37.1837 85.7097 37.4933 84.8383 38.1125C83.9584 38.7409 83.5214 39.5049 83.5214 40.422Z" fill="#5F6368"/>
<path d="M113 28.7363L102.272 52.999H98.956L102.937 44.5095L95.8831 28.7363H99.375L104.473 40.8333H104.543L109.502 28.7363H113Z" fill="#5F6368"/>
<path d="M54.1626 33.4609C54.1638 32.4974 54.081 31.5355 53.9151 30.5859H40.3662V36.0315H48.1264C47.9676 36.9013 47.6315 37.7304 47.1384 38.4688C46.6452 39.2073 46.0052 39.8398 45.257 40.3283V43.8632H49.8884C52.6002 41.4025 54.1626 37.7636 54.1626 33.4609Z" fill="#4285F4"/>
<path d="M40.3661 47.2789C44.2432 47.2789 47.5077 46.026 49.8883 43.8659L45.2569 40.331C43.9678 41.1912 42.3076 41.6821 40.3661 41.6821C36.6187 41.6821 33.438 39.1959 32.3006 35.8457H27.5295V39.4885C28.7253 41.8303 30.5589 43.7989 32.8257 45.1746C35.0924 46.5503 37.703 47.2788 40.3661 47.2789Z" fill="#34A853"/>
<path d="M32.3009 35.848C31.6996 34.0925 31.6996 32.1914 32.3009 30.4358V26.793H27.5298C26.5239 28.763 26 30.9372 26 33.1419C26 35.3467 26.5239 37.5209 27.5298 39.4909L32.3009 35.848Z" fill="#FBBC04"/>
<path d="M40.3661 24.5977C42.415 24.5648 44.3947 25.3267 45.8775 26.7186L49.978 22.683C47.3778 20.2795 43.9332 18.9599 40.3661 19.0009C37.703 19.001 35.0924 19.7296 32.8257 21.1053C30.5589 22.4809 28.7253 24.4495 27.5295 26.7913L32.3006 30.4342C33.438 27.0839 36.6187 24.5977 40.3661 24.5977Z" fill="#EA4335"/>
</svg>
