<svg width="28" height="40" viewBox="0 0 28 40" fill="none" xmlns="http://www.w3.org/2000/svg">
<path d="M1.82609 40H26.1739C27.1824 40 28 39.1859 28 38.1818V17.5758C28 16.5716 27.1824 15.7576 26.1739 15.7576H24.3478V10.303C24.3478 4.62194 19.7058 0 14 0C8.29421 0 3.6523 4.62194 3.6523 10.303V15.7576H1.82609C0.8176 15.7576 0 16.5716 0 17.5758V38.1818C0 39.1859 0.8176 40 1.82609 40ZM7.30447 10.303C7.30447 6.62703 10.3081 3.63636 14 3.63636C17.692 3.63636 20.6957 6.62703 20.6957 10.303V15.7576H7.30447V10.303Z" fill="#6EB883"/>
</svg>
