<svg width="204" height="124" viewBox="0 0 204 124" fill="none" xmlns="http://www.w3.org/2000/svg">
<path d="M91.4007 47.5591C90.9875 48.2538 90.3115 48.7266 89.3729 48.9776C88.4161 49.2334 87.5848 49.1636 86.8789 48.7682C86.1682 48.3551 85.6414 47.582 85.2984 46.4488C85.1434 45.9438 84.9385 45.2165 84.6835 44.2671C84.4333 43.3352 84.2511 42.6207 84.1369 42.1236C83.8662 40.9711 83.9374 40.0475 84.3506 39.3528C84.7591 38.6406 85.4417 38.1566 86.3984 37.9008C87.3371 37.6498 88.1618 37.7308 88.8724 38.1438C89.5784 38.5393 90.1028 39.3036 90.4458 40.4368C90.7463 41.4117 90.9556 42.119 91.0736 42.5585C91.1916 42.9981 91.3695 43.7326 91.6073 44.762C91.878 45.9145 91.8092 46.8469 91.4007 47.5591Z" fill="#ED805F"/>
<path d="M131.588 26.8358L135.804 32.9167L130.984 34.2054L131.588 26.8358Z" fill="#ED805F"/>
<path fill-rule="evenodd" clip-rule="evenodd" d="M2.19105 34.8056C0.614566 35.2272 -0.320989 36.8441 0.101428 38.4172L13.8688 89.6872C14.2912 91.2603 15.9117 92.1938 17.4881 91.7723L36.5178 86.6843L33.6635 87.4474C35.2289 87.0289 36.8375 87.9464 37.2737 89.4994L45.951 121.814C46.3734 123.387 47.9938 124.32 49.5703 123.899L201.809 83.1944C203.385 82.7728 204.321 81.1559 203.899 79.5828L190.131 28.3128C189.709 26.7397 188.088 25.8062 186.512 26.2277L170.321 30.5566C168.75 30.968 167.138 30.0354 166.717 28.4674L158.049 -3.81367C157.627 -5.38676 156.006 -6.3203 154.43 -5.89879L2.19105 34.8056ZM125.293 82.2829C123.518 82.7576 121.981 82.9046 120.683 82.7239C119.386 82.5432 118.346 82.1428 117.564 81.5226C116.783 80.9024 116.227 80.1559 115.896 79.2832L115.882 79.2305C115.844 79.0898 115.868 78.9611 115.951 78.8445C116.049 78.7054 116.169 78.6167 116.312 78.5784L119.971 77.6003C120.186 77.5428 120.368 77.5412 120.517 77.5955C120.661 77.6323 120.809 77.7154 120.959 77.8449C121.602 78.5961 122.66 78.7752 124.13 78.3821C125.062 78.1327 125.753 77.7691 126.201 77.2912C126.649 76.8133 126.791 76.2667 126.625 75.6513C126.456 75.0184 126.077 74.6108 125.49 74.4285C124.916 74.2239 124.172 74.2439 123.257 74.4884L121.267 75.0206C121.088 75.0685 120.907 75.0413 120.726 74.939C120.563 74.8319 120.455 74.6817 120.403 74.4883L119.801 72.2465C119.749 72.0531 119.767 71.8693 119.855 71.6951C119.961 71.5161 120.103 71.4026 120.283 71.3547L122.219 70.8369C122.972 70.6355 123.526 70.3366 123.881 69.9402C124.231 69.5263 124.324 69.0116 124.158 68.3962C124.012 67.8512 123.672 67.4803 123.139 67.2837C122.619 67.0647 121.964 67.0607 121.175 67.2716C120.422 67.473 119.843 67.7503 119.438 68.1035C119.051 68.452 118.852 68.8539 118.84 69.3095C118.793 69.4917 118.725 69.6323 118.636 69.7314C118.547 69.8305 118.404 69.9065 118.207 69.9592L114.468 70.9588C114.307 71.002 114.149 70.9876 113.995 70.9157C113.842 70.8437 113.752 70.7262 113.728 70.5632C113.502 69.0783 113.882 67.667 114.868 66.3292C115.872 64.9866 117.656 63.9725 120.221 63.2869C121.727 62.8841 123.109 62.7691 124.366 62.9418C125.641 63.1096 126.692 63.5165 127.519 64.1623C128.363 64.8032 128.913 65.5984 129.168 66.5479C129.371 67.3039 129.401 68.0592 129.258 68.8136C129.128 69.5456 128.734 70.2257 128.076 70.8539C129.131 71.0617 129.969 71.4973 130.589 72.1606C131.227 72.8192 131.664 73.588 131.9 74.4671C132.202 75.5924 132.137 76.6745 131.705 77.7134C131.268 78.7348 130.504 79.6458 129.412 80.4466C128.316 81.2297 126.942 81.8419 125.293 82.2829ZM91.7493 90.3187C91.7163 90.1956 91.6634 90.1061 91.5907 90.0502L83.8006 82.8332L86.6237 73.4852C86.6576 73.3254 86.6651 73.2103 86.6463 73.14C86.6038 72.9818 86.5146 72.8643 86.3786 72.7876C86.2427 72.7108 86.0851 72.6964 85.9058 72.7444L81.8174 73.8375C81.3332 73.967 81.0397 74.2339 80.9369 74.6383L78.7846 82.0826L77.3591 82.4638L75.6735 76.1869C75.6216 75.9935 75.5074 75.8544 75.3309 75.7697C75.1723 75.6802 74.9944 75.6618 74.7972 75.7145L71.3005 76.6494C71.1212 76.6974 70.9763 76.8021 70.8659 76.9635C70.7734 77.1201 70.7532 77.2952 70.8051 77.4886L72.4906 83.7654L71.0382 84.1538L65.444 78.7806C65.1165 78.4913 64.7285 78.4066 64.2803 78.5265L60.1918 79.6196C60.0305 79.6627 59.9101 79.7514 59.8309 79.8857C59.7516 80.02 59.7332 80.1662 59.7757 80.3244C59.804 80.4299 59.8593 80.5282 59.9414 80.6193L67.0703 87.3064L63.9401 97.4432C63.9184 97.5055 63.9265 97.607 63.9642 97.7477C64.0115 97.9235 64.1054 98.0586 64.246 98.1529C64.3999 98.2248 64.5575 98.2392 64.7189 98.1961L68.9687 97.0598C69.2197 96.9927 69.3962 96.8984 69.4981 96.7769C69.6132 96.633 69.7033 96.4676 69.7684 96.2806L72.0057 88.6157L73.6733 88.1698L75.4084 94.6313C75.4603 94.8247 75.5656 94.9662 75.7241 95.0557C75.8827 95.1452 76.0606 95.1636 76.2579 95.1108L79.7545 94.1759C79.9518 94.1232 80.0966 94.0185 80.1891 93.8619C80.2995 93.7004 80.3288 93.523 80.2768 93.3296L78.5417 86.8681L80.2094 86.4222L85.9876 91.944C86.2793 92.243 86.6403 92.3349 87.0706 92.2198L91.2935 91.0907C91.4729 91.0428 91.6021 90.9517 91.6814 90.8174C91.7739 90.6608 91.7965 90.4945 91.7493 90.3187ZM95.7943 89.6895C95.9528 89.779 96.1307 89.7974 96.328 89.7447L99.6364 88.8601C99.8695 88.7978 100.037 88.7058 100.139 88.5844C100.259 88.4581 100.351 88.3015 100.416 88.1145L105.135 76.0549L107.798 85.9713C107.849 86.1647 107.955 86.3062 108.113 86.3957C108.29 86.4804 108.477 86.4964 108.674 86.4437L112.359 85.4584C112.556 85.4057 112.701 85.301 112.793 85.1444C112.881 84.9702 112.901 84.7951 112.854 84.6193L108.258 67.5029C108.206 67.3095 108.101 67.1681 107.942 67.0786C107.779 66.9715 107.599 66.9443 107.401 66.997L104.093 67.8816C103.699 67.9871 103.439 68.2356 103.313 68.6272L98.7081 81.1087L95.939 70.7967C95.8871 70.6033 95.7729 70.4642 95.5964 70.3795C95.4331 70.2724 95.2528 70.2452 95.0555 70.298L91.3975 71.276C91.2002 71.3288 91.0488 71.4447 90.9431 71.6237C90.8506 71.7803 90.8304 71.9553 90.8823 72.1487L95.4714 89.2387C95.5234 89.4321 95.631 89.5824 95.7943 89.6895ZM137.701 78.4849C137.859 78.5744 138.037 78.5928 138.234 78.54L141.919 77.5548C142.117 77.502 142.261 77.3973 142.354 77.2407C142.464 77.0793 142.494 76.9018 142.442 76.7084L140.707 70.247L147.054 68.5497L148.789 75.0112C148.841 75.2046 148.947 75.3461 149.105 75.4356C149.282 75.5203 149.469 75.5363 149.666 75.4836L153.324 74.5055C153.521 74.4528 153.666 74.3481 153.758 74.1915C153.869 74.03 153.898 73.8526 153.846 73.6592L149.25 56.5428C149.198 56.3494 149.084 56.2104 148.907 56.1256C148.744 56.0185 148.564 55.9914 148.366 56.0441L144.708 57.0222C144.511 57.0749 144.36 57.1908 144.254 57.3698C144.162 57.5264 144.141 57.7015 144.193 57.8949L145.872 64.1454L139.524 65.8426L137.845 59.5921C137.793 59.3987 137.679 59.2596 137.503 59.1749C137.339 59.0678 137.159 59.0406 136.962 59.0934L133.277 60.0786C133.08 60.1313 132.937 60.2448 132.85 60.419C132.757 60.5757 132.737 60.7507 132.789 60.9441L137.385 78.0605C137.437 78.2539 137.542 78.3953 137.701 78.4849ZM159.7 72.8008C159.503 72.8535 159.325 72.8351 159.166 72.7456C159.003 72.6385 158.895 72.4882 158.843 72.2948L154.254 55.2048C154.202 55.0114 154.222 54.8364 154.315 54.6798C154.421 54.5008 154.572 54.3849 154.769 54.3322L158.427 53.3541C158.625 53.3014 158.805 53.3285 158.968 53.4356C159.145 53.5203 159.259 53.6594 159.311 53.8528L162.08 64.1648L166.685 51.6833C166.81 51.2917 167.07 51.0432 167.465 50.9377L170.773 50.0531C170.971 50.0004 171.151 50.0276 171.314 50.1347C171.473 50.2242 171.578 50.3656 171.63 50.559L176.226 67.6754C176.273 67.8512 176.253 68.0263 176.165 68.2005C176.073 68.3571 175.928 68.4618 175.731 68.5145L172.046 69.4998C171.849 69.5525 171.662 69.5365 171.485 69.4518C171.327 69.3623 171.221 69.2208 171.169 69.0274L168.507 59.111L163.788 71.1706C163.723 71.3576 163.631 71.5142 163.511 71.6405C163.409 71.7619 163.241 71.8539 163.008 71.9162L159.7 72.8008ZM83.8813 52.7355C85.6873 53.5529 87.8719 53.619 90.4352 52.9336C92.9984 52.2483 94.8482 51.1035 95.9846 49.4994C97.139 47.8905 97.4451 45.8959 96.9026 43.5158C96.6744 42.5215 96.4894 41.7606 96.3477 41.2332C96.2108 40.7233 95.9874 39.9633 95.6775 38.9532C94.982 36.6516 93.7086 35.0794 91.8571 34.2364C90.0189 33.3711 87.8452 33.2739 85.3361 33.9447C82.809 34.6204 80.9572 35.7939 79.7808 37.4653C78.6178 39.1142 78.3118 41.1088 78.8628 43.4489C78.9817 43.9637 79.178 44.7309 79.4518 45.7507C79.7257 46.7704 79.9377 47.5241 80.088 48.0116C80.8109 50.3434 82.0753 51.9181 83.8813 52.7355ZM33.2313 67.9457C33.0507 67.994 32.8718 67.9759 32.6943 67.8914C32.5302 67.7845 32.4245 67.6432 32.3773 67.4674L27.774 50.3246C27.7221 50.1312 27.7427 49.9561 27.8361 49.7992C27.9294 49.6424 28.0753 49.5374 28.2739 49.4843L31.9834 48.4925C32.1819 48.4394 32.3609 48.4575 32.5203 48.5468C32.6978 48.6312 32.8125 48.7702 32.8644 48.9636L36.4621 62.3613L40.4153 61.3043L36.8176 47.9066C36.7657 47.7132 36.7864 47.5381 36.8797 47.3812C36.9911 47.2195 37.137 47.1145 37.3175 47.0663L41.027 46.0744C41.2256 46.0214 41.4046 46.0395 41.564 46.1287C41.7234 46.218 41.8291 46.3594 41.881 46.5528L45.4786 59.9505L49.4318 58.8935L45.8342 45.4958C45.7823 45.3024 45.8029 45.1273 45.8963 44.9704C46.0076 44.8087 46.1536 44.7038 46.3341 44.6555L50.0436 43.6637C50.2421 43.6106 50.4211 43.6287 50.5805 43.718C50.7399 43.8073 50.8456 43.9486 50.8976 44.142L55.5008 61.2847C55.5481 61.4606 55.5274 61.6357 55.4388 61.8102C55.3455 61.967 55.1995 62.072 55.001 62.1251L33.2313 67.9457ZM78.2276 54.9538C78.3007 55.0097 78.3537 55.0991 78.3868 55.2222C78.434 55.398 78.4109 55.5644 78.3176 55.7212C78.2376 55.8557 78.1164 55.9446 77.9539 55.9881L73.6758 57.1319C73.2426 57.2478 72.8795 57.1564 72.5865 56.8579L66.7816 51.3432L65.0216 51.8138L66.7567 58.2753C66.8086 58.4687 66.7789 58.6462 66.6675 58.8079C66.5742 58.9648 66.4283 59.0697 66.2297 59.1228L62.5202 60.1146C62.3216 60.1677 62.1426 60.1496 61.9832 60.0603C61.8238 59.971 61.7182 59.8297 61.6662 59.6363L57.07 42.5199C57.0181 42.3265 57.0388 42.1514 57.1321 41.9945C57.2207 41.8201 57.3642 41.7063 57.5628 41.6532L61.2723 40.6614C61.4709 40.6083 61.6522 40.6352 61.8164 40.7421C61.9938 40.8265 62.1085 40.9655 62.1604 41.1589L63.8389 47.4094L65.3552 47.004L67.5333 39.5527C67.6735 39.1383 67.9693 38.8708 68.4206 38.7502L72.5633 37.6425C72.7258 37.5991 72.8753 37.6156 73.012 37.6922C73.1486 37.7687 73.2382 37.8861 73.2807 38.0443C73.3137 38.1674 73.3059 38.2825 73.2573 38.3898L70.4011 47.7466L78.2276 54.9538ZM116.832 45.593C116.652 45.6413 116.473 45.6232 116.295 45.5387C116.131 45.4319 116.026 45.2905 115.978 45.1147L112.381 31.717L107.507 33.0201L108.102 35.2355C108.904 38.2245 109.329 40.5984 109.376 42.3573C109.422 44.1163 109.011 45.5361 108.14 46.6169C107.283 47.6753 105.83 48.4971 103.781 49.0825C103.601 49.1308 103.42 49.1039 103.237 49.0019C103.055 48.8998 102.941 48.7609 102.893 48.585L102.107 45.6576C102.008 45.2884 102.172 44.9995 102.6 44.7909C103.514 44.3769 103.983 43.4222 104.008 41.9271C104.032 40.4319 103.706 38.4272 103.031 35.9129L101.6 30.5854C101.549 30.392 101.569 30.2169 101.663 30.06C101.774 29.8984 101.929 29.791 102.127 29.7379L115.585 26.1398C115.783 26.0867 115.964 26.1136 116.129 26.2205C116.306 26.3049 116.421 26.4439 116.473 26.6373L121.069 43.7537C121.121 43.9471 121.091 44.1246 120.98 44.2863C120.886 44.4432 120.74 44.5481 120.542 44.6012L116.832 45.593ZM125.888 43.0022C126.043 43.0739 126.193 43.0904 126.337 43.0518L129.857 42.1107C130.29 41.9948 130.545 41.7194 130.622 41.2843L130.91 38.4654L138.004 36.5687L139.665 38.8663C139.95 39.2048 140.309 39.3162 140.742 39.2003L144.262 38.2592C144.406 38.2206 144.518 38.1341 144.598 37.9996C144.692 37.8427 144.719 37.694 144.682 37.5533C144.653 37.4478 144.623 37.3711 144.591 37.3232L133.742 22.1046C133.425 21.643 132.995 21.4846 132.454 21.6294L128.23 22.7588C127.688 22.9036 127.396 23.255 127.352 23.8132L125.583 42.4054C125.579 42.463 125.591 42.5445 125.62 42.65C125.657 42.7906 125.747 42.908 125.888 43.0022Z" fill="#ED805F"/>
</svg>
