<svg width="198" height="124" viewBox="0 0 198 124" fill="none" xmlns="http://www.w3.org/2000/svg">
<path d="M85.4007 47.5591C84.9875 48.2538 84.3115 48.7266 83.3729 48.9776C82.4161 49.2334 81.5848 49.1636 80.8789 48.7682C80.1682 48.3551 79.6414 47.582 79.2984 46.4488C79.1434 45.9438 78.9385 45.2165 78.6835 44.2671C78.4333 43.3352 78.2511 42.6207 78.1369 42.1236C77.8662 40.9711 77.9374 40.0475 78.3506 39.3528C78.7591 38.6406 79.4417 38.1566 80.3984 37.9008C81.3371 37.6498 82.1618 37.7308 82.8724 38.1438C83.5784 38.5393 84.1028 39.3036 84.4458 40.4368C84.7463 41.4117 84.9556 42.119 85.0736 42.5585C85.1916 42.9981 85.3695 43.7326 85.6073 44.762C85.878 45.9145 85.8092 46.8469 85.4007 47.5591Z" fill="#ED805F"/>
<path d="M125.588 26.8358L129.804 32.9167L124.984 34.2054L125.588 26.8358Z" fill="#ED805F"/>
<path fill-rule="evenodd" clip-rule="evenodd" d="M-3.80895 34.8056C-5.38543 35.2272 -6.32099 36.8441 -5.89857 38.4172L7.8688 89.6872C8.29122 91.2603 9.91166 92.1938 11.4881 91.7723L30.5178 86.6843L27.6635 87.4474C29.2289 87.0289 30.8375 87.9464 31.2737 89.4994L39.951 121.814C40.3734 123.387 41.9938 124.32 43.5703 123.899L195.809 83.1944C197.385 82.7728 198.321 81.1559 197.899 79.5828L184.131 28.3128C183.709 26.7397 182.088 25.8062 180.512 26.2277L164.321 30.5566C162.75 30.968 161.138 30.0354 160.717 28.4674L152.049 -3.81367C151.627 -5.38676 150.006 -6.3203 148.43 -5.89879L-3.80895 34.8056ZM119.293 82.2829C117.518 82.7576 115.981 82.9046 114.683 82.7239C113.386 82.5432 112.346 82.1428 111.564 81.5226C110.783 80.9024 110.227 80.1559 109.896 79.2832L109.882 79.2305C109.844 79.0898 109.868 78.9611 109.951 78.8445C110.049 78.7054 110.169 78.6167 110.312 78.5784L113.971 77.6003C114.186 77.5428 114.368 77.5412 114.517 77.5955C114.661 77.6323 114.809 77.7154 114.959 77.8449C115.602 78.5961 116.66 78.7752 118.13 78.3821C119.062 78.1327 119.753 77.7691 120.201 77.2912C120.649 76.8133 120.791 76.2667 120.625 75.6513C120.456 75.0184 120.077 74.6108 119.49 74.4285C118.916 74.2239 118.172 74.2439 117.257 74.4884L115.267 75.0206C115.088 75.0685 114.907 75.0413 114.726 74.939C114.563 74.8319 114.455 74.6817 114.403 74.4883L113.801 72.2465C113.749 72.0531 113.767 71.8693 113.855 71.6951C113.961 71.5161 114.103 71.4026 114.283 71.3547L116.219 70.8369C116.972 70.6355 117.526 70.3366 117.881 69.9402C118.231 69.5263 118.324 69.0116 118.158 68.3962C118.012 67.8512 117.672 67.4803 117.139 67.2837C116.619 67.0647 115.964 67.0607 115.175 67.2716C114.422 67.473 113.843 67.7503 113.438 68.1035C113.051 68.452 112.852 68.8539 112.84 69.3095C112.793 69.4917 112.725 69.6323 112.636 69.7314C112.547 69.8305 112.404 69.9065 112.207 69.9592L108.468 70.9588C108.307 71.002 108.149 70.9876 107.995 70.9157C107.842 70.8437 107.752 70.7262 107.728 70.5632C107.502 69.0783 107.882 67.667 108.868 66.3292C109.872 64.9866 111.656 63.9725 114.221 63.2869C115.727 62.8841 117.109 62.7691 118.366 62.9418C119.641 63.1096 120.692 63.5165 121.519 64.1623C122.363 64.8032 122.913 65.5984 123.168 66.5479C123.371 67.3039 123.401 68.0592 123.258 68.8136C123.128 69.5456 122.734 70.2257 122.076 70.8539C123.131 71.0617 123.969 71.4973 124.589 72.1606C125.227 72.8192 125.664 73.588 125.9 74.4671C126.202 75.5924 126.137 76.6745 125.705 77.7134C125.268 78.7348 124.504 79.6458 123.412 80.4466C122.316 81.2297 120.942 81.8419 119.293 82.2829ZM85.7493 90.3187C85.7163 90.1956 85.6634 90.1061 85.5907 90.0502L77.8006 82.8332L80.6237 73.4852C80.6576 73.3254 80.6651 73.2103 80.6463 73.14C80.6038 72.9818 80.5146 72.8643 80.3786 72.7876C80.2427 72.7108 80.0851 72.6964 79.9058 72.7444L75.8174 73.8375C75.3332 73.967 75.0397 74.2339 74.9369 74.6383L72.7846 82.0826L71.3591 82.4638L69.6735 76.1869C69.6216 75.9935 69.5074 75.8544 69.3309 75.7697C69.1723 75.6802 68.9944 75.6618 68.7972 75.7145L65.3005 76.6494C65.1212 76.6974 64.9763 76.8021 64.8659 76.9635C64.7734 77.1201 64.7532 77.2952 64.8051 77.4886L66.4906 83.7654L65.0382 84.1538L59.444 78.7806C59.1165 78.4913 58.7285 78.4066 58.2803 78.5265L54.1918 79.6196C54.0305 79.6627 53.9101 79.7514 53.8309 79.8857C53.7516 80.02 53.7332 80.1662 53.7757 80.3244C53.804 80.4299 53.8593 80.5282 53.9414 80.6193L61.0703 87.3064L57.9401 97.4432C57.9184 97.5055 57.9265 97.607 57.9642 97.7477C58.0115 97.9235 58.1054 98.0586 58.246 98.1529C58.3999 98.2248 58.5575 98.2392 58.7189 98.1961L62.9687 97.0598C63.2197 96.9927 63.3962 96.8984 63.4981 96.7769C63.6132 96.633 63.7033 96.4676 63.7684 96.2806L66.0057 88.6157L67.6733 88.1698L69.4084 94.6313C69.4603 94.8247 69.5656 94.9662 69.7241 95.0557C69.8827 95.1452 70.0606 95.1636 70.2579 95.1108L73.7545 94.1759C73.9518 94.1232 74.0966 94.0185 74.1891 93.8619C74.2995 93.7004 74.3288 93.523 74.2768 93.3296L72.5417 86.8681L74.2094 86.4222L79.9876 91.944C80.2793 92.243 80.6403 92.3349 81.0706 92.2198L85.2935 91.0907C85.4729 91.0428 85.6021 90.9517 85.6814 90.8174C85.7739 90.6608 85.7965 90.4945 85.7493 90.3187ZM89.7943 89.6895C89.9528 89.779 90.1307 89.7974 90.328 89.7447L93.6364 88.8601C93.8695 88.7978 94.037 88.7058 94.1389 88.5844C94.2588 88.4581 94.3512 88.3015 94.4163 88.1145L99.1347 76.0549L101.798 85.9713C101.849 86.1647 101.955 86.3062 102.113 86.3957C102.29 86.4804 102.477 86.4964 102.674 86.4437L106.359 85.4584C106.556 85.4057 106.701 85.301 106.793 85.1444C106.881 84.9702 106.901 84.7951 106.854 84.6193L102.258 67.5029C102.206 67.3095 102.101 67.1681 101.942 67.0786C101.779 66.9715 101.599 66.9443 101.401 66.997L98.0931 67.8816C97.6986 67.9871 97.4386 68.2356 97.3131 68.6272L92.7081 81.1087L89.939 70.7967C89.8871 70.6033 89.7729 70.4642 89.5964 70.3795C89.4331 70.2724 89.2528 70.2452 89.0555 70.298L85.3975 71.276C85.2002 71.3288 85.0488 71.4447 84.9431 71.6237C84.8506 71.7803 84.8304 71.9553 84.8823 72.1487L89.4714 89.2387C89.5234 89.4321 89.631 89.5824 89.7943 89.6895ZM131.701 78.4849C131.859 78.5744 132.037 78.5928 132.234 78.54L135.919 77.5548C136.117 77.502 136.261 77.3973 136.354 77.2407C136.464 77.0793 136.494 76.9018 136.442 76.7084L134.707 70.247L141.054 68.5497L142.789 75.0112C142.841 75.2046 142.947 75.3461 143.105 75.4356C143.282 75.5203 143.469 75.5363 143.666 75.4836L147.324 74.5055C147.521 74.4528 147.666 74.3481 147.758 74.1915C147.869 74.03 147.898 73.8526 147.846 73.6592L143.25 56.5428C143.198 56.3494 143.084 56.2104 142.907 56.1256C142.744 56.0185 142.564 55.9914 142.366 56.0441L138.708 57.0222C138.511 57.0749 138.36 57.1908 138.254 57.3698C138.162 57.5264 138.141 57.7015 138.193 57.8949L139.872 64.1454L133.524 65.8426L131.845 59.5921C131.793 59.3987 131.679 59.2596 131.503 59.1749C131.339 59.0678 131.159 59.0406 130.962 59.0934L127.277 60.0786C127.08 60.1313 126.937 60.2448 126.85 60.419C126.757 60.5757 126.737 60.7507 126.789 60.9441L131.385 78.0605C131.437 78.2539 131.542 78.3953 131.701 78.4849ZM153.7 72.8008C153.503 72.8535 153.325 72.8351 153.166 72.7456C153.003 72.6385 152.895 72.4882 152.843 72.2948L148.254 55.2048C148.202 55.0114 148.222 54.8364 148.315 54.6798C148.421 54.5008 148.572 54.3849 148.769 54.3322L152.427 53.3541C152.625 53.3014 152.805 53.3285 152.968 53.4356C153.145 53.5203 153.259 53.6594 153.311 53.8528L156.08 64.1648L160.685 51.6833C160.81 51.2917 161.07 51.0432 161.465 50.9377L164.773 50.0531C164.971 50.0004 165.151 50.0276 165.314 50.1347C165.473 50.2242 165.578 50.3656 165.63 50.559L170.226 67.6754C170.273 67.8512 170.253 68.0263 170.165 68.2005C170.073 68.3571 169.928 68.4618 169.731 68.5145L166.046 69.4998C165.849 69.5525 165.662 69.5365 165.485 69.4518C165.327 69.3623 165.221 69.2208 165.169 69.0274L162.507 59.111L157.788 71.1706C157.723 71.3576 157.631 71.5142 157.511 71.6405C157.409 71.7619 157.241 71.8539 157.008 71.9162L153.7 72.8008ZM77.8813 52.7355C79.6873 53.5529 81.8719 53.619 84.4352 52.9336C86.9984 52.2483 88.8482 51.1035 89.9846 49.4994C91.139 47.8905 91.4451 45.8959 90.9026 43.5158C90.6744 42.5215 90.4894 41.7606 90.3477 41.2332C90.2108 40.7233 89.9874 39.9633 89.6775 38.9532C88.982 36.6516 87.7086 35.0794 85.8571 34.2364C84.0189 33.3711 81.8452 33.2739 79.3361 33.9447C76.809 34.6204 74.9572 35.7939 73.7808 37.4653C72.6178 39.1142 72.3118 41.1088 72.8628 43.4489C72.9817 43.9637 73.178 44.7309 73.4518 45.7507C73.7257 46.7704 73.9377 47.5241 74.088 48.0116C74.8109 50.3434 76.0753 51.9181 77.8813 52.7355ZM27.2313 67.9457C27.0507 67.994 26.8718 67.9759 26.6943 67.8914C26.5302 67.7845 26.4245 67.6432 26.3773 67.4674L21.774 50.3246C21.7221 50.1312 21.7427 49.9561 21.8361 49.7992C21.9294 49.6424 22.0753 49.5374 22.2739 49.4843L25.9834 48.4925C26.1819 48.4394 26.3609 48.4575 26.5203 48.5468C26.6978 48.6312 26.8125 48.7702 26.8644 48.9636L30.4621 62.3613L34.4153 61.3043L30.8176 47.9066C30.7657 47.7132 30.7864 47.5381 30.8797 47.3812C30.9911 47.2195 31.137 47.1145 31.3175 47.0663L35.027 46.0744C35.2256 46.0214 35.4046 46.0395 35.564 46.1287C35.7234 46.218 35.8291 46.3594 35.881 46.5528L39.4786 59.9505L43.4318 58.8935L39.8342 45.4958C39.7823 45.3024 39.8029 45.1273 39.8963 44.9704C40.0076 44.8087 40.1536 44.7038 40.3341 44.6555L44.0436 43.6637C44.2421 43.6106 44.4211 43.6287 44.5805 43.718C44.7399 43.8073 44.8456 43.9486 44.8976 44.142L49.5008 61.2847C49.5481 61.4606 49.5274 61.6357 49.4388 61.8102C49.3455 61.967 49.1995 62.072 49.001 62.1251L27.2313 67.9457ZM72.2276 54.9538C72.3007 55.0097 72.3537 55.0991 72.3868 55.2222C72.434 55.398 72.4109 55.5644 72.3176 55.7212C72.2376 55.8557 72.1164 55.9446 71.9539 55.9881L67.6758 57.1319C67.2426 57.2478 66.8795 57.1564 66.5865 56.8579L60.7816 51.3432L59.0216 51.8138L60.7567 58.2753C60.8086 58.4687 60.7789 58.6462 60.6675 58.8079C60.5742 58.9648 60.4283 59.0697 60.2297 59.1228L56.5202 60.1146C56.3216 60.1677 56.1426 60.1496 55.9832 60.0603C55.8238 59.971 55.7182 59.8297 55.6662 59.6363L51.07 42.5199C51.0181 42.3265 51.0388 42.1514 51.1321 41.9945C51.2207 41.8201 51.3642 41.7063 51.5628 41.6532L55.2723 40.6614C55.4709 40.6083 55.6522 40.6352 55.8164 40.7421C55.9938 40.8265 56.1085 40.9655 56.1604 41.1589L57.8389 47.4094L59.3552 47.004L61.5333 39.5527C61.6735 39.1383 61.9693 38.8708 62.4206 38.7502L66.5633 37.6425C66.7258 37.5991 66.8753 37.6156 67.012 37.6922C67.1486 37.7687 67.2382 37.8861 67.2807 38.0443C67.3137 38.1674 67.3059 38.2825 67.2573 38.3898L64.4011 47.7466L72.2276 54.9538ZM110.832 45.593C110.652 45.6413 110.473 45.6232 110.295 45.5387C110.131 45.4319 110.026 45.2905 109.978 45.1147L106.381 31.717L101.507 33.0201L102.102 35.2355C102.904 38.2245 103.329 40.5984 103.376 42.3573C103.422 44.1163 103.011 45.5361 102.14 46.6169C101.283 47.6753 99.8298 48.4971 97.7814 49.0825C97.6009 49.1308 97.4196 49.1039 97.2374 49.0019C97.0552 48.8998 96.9405 48.7609 96.8933 48.585L96.1072 45.6576C96.008 45.2884 96.1723 44.9995 96.6 44.7909C97.5142 44.3769 97.9834 43.4222 98.0075 41.9271C98.0317 40.4319 97.7062 38.4272 97.031 35.9129L95.6004 30.5854C95.5485 30.392 95.5692 30.2169 95.6625 30.06C95.7739 29.8984 95.9288 29.791 96.1274 29.7379L109.585 26.1398C109.783 26.0867 109.964 26.1136 110.129 26.2205C110.306 26.3049 110.421 26.4439 110.473 26.6373L115.069 43.7537C115.121 43.9471 115.091 44.1246 114.98 44.2863C114.886 44.4432 114.74 44.5481 114.542 44.6012L110.832 45.593ZM119.888 43.0022C120.043 43.0739 120.193 43.0904 120.337 43.0518L123.857 42.1107C124.29 41.9948 124.545 41.7194 124.622 41.2843L124.91 38.4654L132.004 36.5687L133.665 38.8663C133.95 39.2048 134.309 39.3162 134.742 39.2003L138.262 38.2592C138.406 38.2206 138.518 38.1341 138.598 37.9996C138.692 37.8427 138.719 37.694 138.682 37.5533C138.653 37.4478 138.623 37.3711 138.591 37.3232L127.742 22.1046C127.425 21.643 126.995 21.4846 126.454 21.6294L122.23 22.7588C121.688 22.9036 121.396 23.255 121.352 23.8132L119.583 42.4054C119.579 42.463 119.591 42.5445 119.62 42.65C119.657 42.7906 119.747 42.908 119.888 43.0022Z" fill="#ED805F"/>
</svg>
