<svg width="520" height="500" viewBox="0 0 520 500" fill="none" xmlns="http://www.w3.org/2000/svg">
<path d="M486.542 199.631C480.461 194.7 470.34 186.475 469.072 182.577C467.784 178.528 471.114 165.501 473.113 157.749C477.904 139.037 483.878 115.759 470.491 97.4347C457.168 79.2396 433.209 77.6458 413.956 76.3532C405.983 75.7935 392.617 74.9101 389.243 72.4553C385.827 69.9791 380.691 57.2961 377.618 49.6946C370.033 30.8531 361.395 9.49176 340.315 2.68715C319.342 -4.18158 300.174 7.98449 283.306 18.686C275.87 23.3799 264.675 30.4867 259.991 30.4867C255.5 30.4867 244.434 23.273 237.084 18.4927C220.861 7.91935 200.576 -5.17286 179.195 2.10602C158.157 9.27702 149.606 30.5081 142.02 49.1989C138.969 56.7353 133.897 69.3105 130.416 71.8731C127.021 74.3921 113.419 75.2968 105.296 75.8352C84.9895 77.2132 61.9755 78.7643 49.0395 97.1101C36.3401 115.133 42.0337 137.356 47.062 156.973C49.0395 164.767 52.391 177.817 51.1875 181.714C49.8987 185.439 39.8846 193.687 33.9107 198.617C18.8023 211.109 0 226.634 0 249.89C0 272.995 18.4377 288.349 33.2424 300.665C39.6673 306.005 49.3584 314.08 50.6695 318.086C51.9584 322.048 48.6068 334.924 46.5867 342.612C41.6873 361.497 35.5631 385.012 49.466 403.487C63.0256 421.446 86.8776 423.038 106.067 424.331C114.039 424.891 127.384 425.752 130.779 428.229C134.174 430.706 139.289 443.367 142.361 450.968C149.968 469.81 158.585 491.171 179.686 497.997C183.92 499.396 188.11 500 192.193 500C208.352 500 223.265 490.526 236.717 482.041C244.13 477.347 255.305 470.24 259.989 470.24C264.566 470.24 275.568 477.261 282.831 481.912C298.947 492.183 319.061 505.06 340.399 497.739C361.414 490.568 369.967 469.358 377.552 450.624C380.603 443.109 385.675 430.513 389.156 427.95C392.573 425.431 406.089 424.526 414.169 423.988C434.325 422.61 457.189 421.081 470.319 403.014C483.534 384.862 477.861 362.402 472.855 342.614C470.9 334.883 467.633 321.985 468.815 318.108C470.103 314.383 480.117 306.136 486.07 301.205C501.198 288.715 520 273.168 520 249.912C520 226.85 501.434 211.754 486.542 199.631ZM458.758 268C446.187 278.357 433.186 289.103 428.072 304.499C422.85 320.175 427.105 336.971 431.209 353.207C433.208 361.131 436.559 374.374 436.108 377.109C432.842 379.564 419.369 380.49 411.311 381.007C395.345 382.084 377.252 383.29 363.779 393.194C350.434 402.992 343.966 418.991 337.713 434.452C334.662 442.075 329.504 454.844 327.377 456.783C323.465 456.783 312.528 449.741 305.974 445.564C292.458 436.951 277.137 427.153 260.01 427.153C242.862 427.153 227.412 436.972 213.745 445.629C207.127 449.807 196.039 456.869 193.676 457.386C190.345 454.995 185.273 442.378 182.222 434.841C175.905 419.186 169.373 403.015 155.899 393.303C142.513 383.635 125.45 382.494 108.926 381.396C101.168 380.879 86.707 379.91 84.0846 378.122C82.7521 374.311 86.126 361.284 88.1674 353.532C92.1426 338.178 96.6773 320.78 91.5627 304.888C86.4266 289.018 72.7817 277.627 60.7262 267.592C54.8387 262.682 43.8577 253.531 42.9335 250.215C43.9004 246.166 55.182 236.843 61.2412 231.869C73.8116 221.49 86.8126 210.745 91.9273 195.348C97.1923 179.564 92.8515 162.639 88.6823 146.274C86.6623 138.371 83.267 125.15 83.525 122.631C86.8126 120.263 100.178 119.358 108.172 118.819C124.954 117.7 142.339 116.515 155.812 106.632C169.156 96.8343 175.625 80.8567 181.878 65.3962C184.929 57.752 190.109 45.0038 192.085 43.0874C196.06 43.1515 207.105 50.3439 213.703 54.6296C227.326 63.5012 242.798 73.5575 260.01 73.5575C277.137 73.5575 292.63 63.7384 306.254 55.1038C312.872 50.9046 323.96 43.8639 326.324 43.3469C329.633 45.7376 334.727 58.3555 337.778 65.8919C344.095 81.5254 350.627 97.6963 364.101 107.408C377.487 117.097 394.571 118.238 411.118 119.337C419.284 119.896 432.972 120.822 435.528 122.372C436.84 126.162 433.508 139.255 431.488 147.05C427.556 162.467 423.086 179.931 428.222 195.866C433.401 211.908 447.261 223.169 459.488 233.096C465.075 237.661 475.368 245.995 476.958 250C475.433 254.197 464.624 263.133 458.758 268Z" fill="#E1ECE6"/>
<path d="M356.086 168.774C346.932 161.109 333.415 162.357 325.831 171.466L230.014 286.26L189.25 245.434C180.847 237.014 167.266 237.014 158.865 245.434C150.463 253.853 150.463 267.463 158.865 275.881L216.24 333.375C220.258 337.445 225.738 339.684 231.433 339.684C231.733 339.684 232.056 339.684 232.357 339.642C238.416 339.383 244.025 336.584 247.893 331.955L358.772 199.093C366.379 189.964 365.197 176.397 356.086 168.774Z" fill="#E1ECE6"/>
</svg>
