<svg width="228" height="200" viewBox="0 0 228 200" fill="none" xmlns="http://www.w3.org/2000/svg">
<path d="M91.405 39.7125C97.0949 37.3338 99.481 30.5637 96.9114 25.0745L87.9177 6.22813C85.3481 0.923694 79.1076 -1.4568 73.6012 0.923694C58 7.51078 44.6012 16.1106 33.9557 26.5401C20.924 38.7976 12.1139 52.8866 7.34177 68.4395C2.56962 84.1771 0 105.583 0 132.847V189.02C0 195.058 4.95569 199.998 11.0127 199.998H83.1455C89.2025 199.998 94.1582 195.058 94.1582 189.02V117.111C94.1582 111.071 89.2025 106.132 83.1455 106.132H48.6392C49.0063 87.65 53.4114 72.8309 61.4873 61.6676C68.0949 52.7055 78.0063 45.3865 91.405 39.7125Z" fill="#F4E3E0"/>
<path d="M220.987 39.7125C226.677 37.3338 229.061 30.5637 226.494 25.0745L217.5 6.41293C214.93 1.10667 208.69 -1.272 203.183 1.10667C187.766 7.69375 174.549 16.2936 163.721 26.5401C150.688 38.9824 141.696 53.0714 136.922 68.6243C132.15 83.9923 129.766 105.402 129.766 132.848V189.022C129.766 195.06 134.721 200 140.778 200H212.911C218.968 200 223.924 195.06 223.924 189.022V117.113C223.924 111.073 218.968 106.134 212.911 106.134H178.221C178.589 87.6518 182.995 72.8327 191.07 61.6694C197.677 52.7055 207.589 45.3865 220.987 39.7125Z" fill="#F4E3E0"/>
</svg>
