<svg width="190" height="132" viewBox="0 0 190 132" fill="none" xmlns="http://www.w3.org/2000/svg">
<g filter="url(#filter0_d)">
<path fill-rule="evenodd" clip-rule="evenodd" d="M22.8978 45.224C21.2974 45.6529 20.3476 47.2979 20.7765 48.8983L28.541 77.876C28.9699 79.4764 30.6149 80.4262 32.2153 79.9974L48.6361 75.5974L53.2944 92.9825C53.7233 94.5829 55.3683 95.5326 56.9687 95.1038L166.118 65.8573C167.719 65.4284 168.668 63.7834 168.24 62.183L160.475 33.2052C160.046 31.6048 158.401 30.6551 156.801 31.0839L140.38 35.4839L135.722 18.0988C135.293 16.4984 133.648 15.5487 132.047 15.9775L22.8978 45.224Z" fill="#ED805F"/>
</g>
<path d="M70.961 79.199C70.0646 79.4392 69.2218 79.5187 68.4326 79.4376C67.6434 79.3564 66.9261 79.1317 66.2808 78.7635C65.6393 78.3888 65.0914 77.8896 64.6372 77.2659C64.1816 76.637 63.8399 75.8976 63.6121 75.0476C63.3168 73.9452 63.2772 72.9012 63.4935 71.9156C63.7084 70.9249 64.1694 70.0698 64.8766 69.3502C65.5838 68.6306 66.5221 68.1142 67.6916 67.8009C68.047 67.7056 68.4035 67.6349 68.7611 67.5888C69.1238 67.5413 69.4753 67.5134 69.8154 67.5051C70.1555 67.4968 70.4759 67.5076 70.7765 67.5374C71.0809 67.5608 71.3565 67.6001 71.6032 67.6555L72.0436 70.0718C71.5742 69.9271 71.134 69.8297 70.723 69.7797C70.3107 69.7245 69.923 69.7097 69.5599 69.7352C69.2005 69.7542 68.8663 69.8051 68.5572 69.8879C67.9287 70.0563 67.407 70.3452 66.9922 70.7545C66.5759 71.1587 66.2979 71.6666 66.1582 72.2783C66.0221 72.8834 66.057 73.5698 66.2627 74.3374C66.3938 74.8268 66.5901 75.2711 66.8517 75.6704C67.1119 76.0645 67.4311 76.3903 67.8093 76.6478C68.1927 76.904 68.6289 77.0687 69.1178 77.142C69.6068 77.2153 70.1449 77.1732 70.7322 77.0159C70.9743 76.951 71.2123 76.8707 71.4461 76.7749C71.6838 76.6726 71.9165 76.5522 72.1445 76.4138C72.3724 76.2754 72.5935 76.1113 72.8076 75.9214C73.0204 75.7264 73.2263 75.5056 73.4252 75.259L74.1896 77.5554C74.0012 77.7384 73.7855 77.9122 73.5425 78.0767C73.2995 78.2412 73.0361 78.3918 72.7525 78.5285C72.4754 78.669 72.1832 78.7942 71.8759 78.9042C71.5751 79.0179 71.2701 79.1162 70.961 79.199ZM76.9339 77.375C76.7752 76.7825 76.6213 76.2081 76.4722 75.6518C76.3231 75.0954 76.1561 74.472 75.9711 73.7817L74.969 70.0417C74.7785 69.3307 74.6066 68.6894 74.4534 68.1175C74.3002 67.5457 74.1428 66.9584 73.9813 66.3557L83.3392 63.8483C83.5007 64.451 83.6581 65.0383 83.8113 65.6101C83.9645 66.1819 84.1364 66.8233 84.3269 67.5342L85.329 71.2743C85.514 71.9646 85.681 72.588 85.8301 73.1443C85.9792 73.7007 86.1331 74.2751 86.2918 74.8675L83.7418 75.5508C83.583 74.9584 83.4291 74.384 83.2801 73.8276C83.131 73.2712 82.964 72.6479 82.779 71.9576L81.8845 68.6193C81.694 67.9084 81.5222 67.267 81.3689 66.6952C81.2157 66.1234 81.0584 65.5361 80.8969 64.9334L82.0752 66.4563L76.3723 67.9844L76.6313 66.0763C76.7928 66.679 76.9502 67.2663 77.1034 67.8382C77.2566 68.41 77.4285 69.0514 77.619 69.7623L78.5135 73.1005C78.6984 73.7908 78.8655 74.4142 79.0145 74.9706C79.1636 75.5269 79.3175 76.1013 79.4763 76.6938L76.9339 77.375ZM88.4724 74.2833C88.5094 73.6384 88.5459 72.9605 88.5818 72.2496C88.6229 71.5374 88.66 70.8621 88.6933 70.2238L88.9249 66.1117C88.9628 65.3672 88.9988 64.6977 89.0328 64.1034C89.0654 63.5038 89.0973 62.9017 89.1285 62.297L92.4049 61.4191C92.745 61.9464 93.0758 62.4596 93.3972 62.9587C93.7238 63.4565 94.0876 64.0106 94.4886 64.6209L96.7318 68.0781C97.0956 68.6322 97.4668 69.2036 97.8454 69.7923C98.2292 70.3797 98.5951 70.9414 98.943 71.4777L96.3157 72.1816C95.9935 71.6385 95.6627 71.0839 95.3233 70.5178C94.9825 69.9466 94.6584 69.4067 94.351 68.8983L91.4139 63.9954L91.2285 64.0451L91.1064 69.7097C91.0948 70.3257 91.0805 70.9728 91.0634 71.651C91.0501 72.3226 91.0365 72.9723 91.0225 73.6L88.4724 74.2833ZM90.5136 71.2682L90.2747 69.2948L95.1971 67.9759L95.9228 69.8188L90.5136 71.2682ZM106.015 69.8063C105.119 70.0465 104.276 70.126 103.487 70.0449C102.697 69.9637 101.98 69.739 101.335 69.3708C100.693 68.9961 100.145 68.4969 99.6913 67.8732C99.2357 67.2443 98.894 66.5049 98.6662 65.6549C98.3708 64.5525 98.3312 63.5085 98.5475 62.5229C98.7624 61.5322 99.2235 60.677 99.9307 59.9575C100.638 59.2379 101.576 58.7215 102.746 58.4081C103.101 58.3129 103.458 58.2422 103.815 58.1961C104.178 58.1486 104.529 58.1207 104.869 58.1124C105.21 58.1041 105.53 58.1149 105.831 58.1447C106.135 58.1681 106.411 58.2074 106.657 58.2628L107.098 60.6791C106.628 60.5344 106.188 60.437 105.777 60.387C105.365 60.3318 104.977 60.317 104.614 60.3425C104.255 60.3615 103.92 60.4124 103.611 60.4952C102.983 60.6636 102.461 60.9525 102.046 61.3618C101.63 61.766 101.352 62.2739 101.212 62.8856C101.076 63.4907 101.111 64.1771 101.317 64.9447C101.448 65.4341 101.644 65.8784 101.906 66.2777C102.166 66.6717 102.485 66.9976 102.863 67.2551C103.247 67.5113 103.683 67.676 104.172 67.7493C104.661 67.8226 105.199 67.7805 105.786 67.6232C106.028 67.5583 106.266 67.478 106.5 67.3822C106.738 67.2799 106.971 67.1595 107.199 67.0211C107.426 66.8827 107.648 66.7186 107.862 66.5287C108.074 66.3337 108.28 66.1129 108.479 65.8663L109.244 68.1627C109.055 68.3457 108.84 68.5194 108.597 68.684C108.354 68.8485 108.09 68.9991 107.807 69.1358C107.53 69.2763 107.237 69.4015 106.93 69.5115C106.629 69.6252 106.324 69.7235 106.015 69.8063ZM111.988 67.9823C111.829 67.3898 111.675 66.8154 111.526 66.2591C111.377 65.7027 111.21 65.0793 111.025 64.389L110.023 60.649C109.833 59.938 109.661 59.2967 109.507 58.7248C109.354 58.153 109.197 57.5657 109.035 56.963L111.516 56.2983C111.679 56.9062 111.838 57.4987 111.992 58.0756C112.145 58.6475 112.317 59.2888 112.508 59.9998L113.338 63.0985L113.516 63.0508L114.595 59.9375C114.87 59.1515 115.146 58.357 115.422 57.5542C115.703 56.7499 115.996 55.9041 116.299 55.0167L118.455 54.439C118.617 55.0417 118.774 55.629 118.927 56.2008C119.08 56.7727 119.252 57.414 119.443 58.125L120.445 61.865C120.63 62.5553 120.797 63.1787 120.946 63.7351C121.095 64.2914 121.249 64.8658 121.408 65.4583L118.927 66.1229C118.767 65.5253 118.612 64.9483 118.463 64.392C118.314 63.8356 118.147 63.2097 117.96 62.5142L117.105 59.3228L116.927 59.3704L115.833 62.4879C115.502 63.4379 115.198 64.3117 114.92 65.1094C114.641 65.902 114.372 66.6698 114.113 67.4129L111.988 67.9823ZM128.787 63.4809C127.906 63.7169 127.105 63.9316 126.384 64.1248C125.668 64.3167 124.988 64.4989 124.344 64.6715C124.185 64.079 124.031 63.5046 123.882 62.9482C123.733 62.3919 123.566 61.7685 123.381 61.0782L122.379 57.3381C122.252 56.8642 122.134 56.4237 122.025 56.0168C121.916 55.6098 121.81 55.2157 121.708 54.8345C121.605 54.4481 121.499 54.054 121.392 53.6522L129.158 51.5713L129.733 53.7195C129.192 53.8644 128.613 54.0197 127.995 54.1854C127.381 54.3496 126.655 54.5443 125.815 54.7693L123.18 55.4753L124.003 53.3831C124.164 53.9859 124.322 54.5732 124.475 55.145C124.628 55.7168 124.8 56.3582 124.991 57.0691L125.775 59.9978C125.873 60.3636 125.968 60.7165 126.059 61.0565C126.15 61.3965 126.24 61.7339 126.33 62.0687L127.783 61.6795C128.185 61.5718 128.517 61.433 128.781 61.2629C129.043 61.0878 129.219 60.8668 129.308 60.6001C129.4 60.3269 129.393 59.9919 129.287 59.5953C129.208 59.3016 129.092 59.0759 128.94 58.918C128.787 58.7602 128.615 58.6544 128.424 58.6007C128.231 58.5418 128.035 58.5199 127.835 58.5349C127.635 58.5499 127.447 58.5809 127.272 58.6278L125.224 59.1765L124.737 57.3606C125.041 57.2791 125.374 57.1901 125.734 57.0935C126.1 56.9955 126.509 56.8857 126.963 56.7643C127.854 56.5255 128.627 56.4316 129.281 56.4827C129.939 56.5273 130.483 56.7542 130.913 57.1635C131.348 57.5715 131.678 58.1953 131.903 59.0351C132.081 59.6996 132.107 60.3221 131.981 60.9025C131.859 61.4764 131.542 61.9837 131.03 62.4244C130.519 62.8651 129.771 63.2172 128.787 63.4809ZM140.487 60.5697C139.493 60.8361 138.591 60.9146 137.784 60.8053C136.974 60.6908 136.264 60.4311 135.653 60.0261C135.041 59.616 134.527 59.0994 134.112 58.4763C133.702 57.8519 133.395 57.161 133.192 56.4037C132.905 55.3322 132.857 54.3071 133.047 53.3284C133.241 52.3433 133.69 51.4832 134.393 50.7481C135.101 50.0118 136.087 49.4745 137.349 49.1363C138.307 48.8795 139.184 48.8046 139.98 48.9115C140.775 49.0133 141.48 49.2634 142.094 49.6619C142.714 50.059 143.235 50.5709 143.657 51.1978C144.079 51.8246 144.396 52.5347 144.609 53.328C144.903 54.4253 144.946 55.4628 144.739 56.4404C144.537 57.4167 144.083 58.2672 143.377 58.9919C142.671 59.7166 141.708 60.2425 140.487 60.5697ZM139.887 58.4859C140.397 58.3492 140.817 58.1345 141.147 57.8418C141.476 57.5439 141.721 57.1911 141.882 56.7834C142.044 56.3758 142.128 55.939 142.136 55.4732C142.147 55.0008 142.088 54.5225 141.958 54.0382C141.822 53.5282 141.625 53.0729 141.369 52.6723C141.116 52.2651 140.814 51.9319 140.463 51.6726C140.117 51.4119 139.731 51.2392 139.306 51.1545C138.88 51.0698 138.425 51.0924 137.941 51.2221C137.441 51.356 137.024 51.57 136.688 51.8642C136.358 52.1569 136.11 52.5078 135.943 52.9168C135.775 53.3207 135.683 53.7595 135.667 54.2333C135.65 54.7071 135.707 55.1887 135.838 55.6781C135.97 56.1675 136.158 56.6139 136.404 57.0173C136.649 57.4155 136.943 57.7508 137.287 58.0231C137.634 58.289 138.024 58.4687 138.458 58.5623C138.896 58.6494 139.372 58.6239 139.887 58.4859ZM147.472 54.0931C147.102 52.8781 146.728 51.678 146.35 50.4929C145.97 49.3026 145.59 48.1207 145.209 46.9472L147.717 46.2006C147.977 47.4175 148.242 48.6414 148.511 49.8724C148.779 51.0982 149.053 52.3304 149.336 53.5689L147.472 54.0931ZM149.543 58.1432C149.244 58.2232 148.97 58.2304 148.72 58.1648C148.476 58.0977 148.266 57.9745 148.091 57.795C147.92 57.609 147.799 57.3846 147.728 57.1219C147.621 56.7201 147.661 56.3559 147.85 56.0293C148.038 55.7027 148.357 55.4793 148.805 55.3592C149.104 55.2792 149.375 55.2701 149.618 55.332C149.864 55.3873 150.073 55.5054 150.243 55.6863C150.416 55.8606 150.539 56.0817 150.611 56.3496C150.717 56.7463 150.678 57.1156 150.494 57.4577C150.313 57.7932 149.996 58.0217 149.543 58.1432Z" fill="white"/>
<path d="M45.2785 64.1179C44.3976 64.354 43.5965 64.5686 42.8753 64.7619C42.1592 64.9537 41.4792 65.1359 40.8352 65.3085C40.6765 64.7161 40.5226 64.1417 40.3735 63.5853C40.2244 63.0289 40.0574 62.4056 39.8724 61.7152L38.8703 57.9752C38.7433 57.5012 38.6253 57.0608 38.5162 56.6538C38.4072 56.2468 38.3016 55.8527 38.1994 55.4715C38.0959 55.0851 37.9903 54.691 37.8826 54.2892L45.6487 52.2083L46.2243 54.3565C45.6834 54.5015 45.1038 54.6568 44.4856 54.8224C43.8726 54.9867 43.1462 55.1813 42.3065 55.4063L39.6715 56.1124L40.494 54.0202C40.6555 54.6229 40.8129 55.2102 40.9661 55.782C41.1193 56.3539 41.2911 56.9952 41.4816 57.7061L42.2664 60.6348C42.3644 61.0006 42.4589 61.3535 42.55 61.6935C42.6411 62.0335 42.7316 62.3709 42.8213 62.7058L44.274 62.3165C44.6759 62.2088 45.0086 62.07 45.2722 61.9C45.5345 61.7248 45.71 61.5038 45.7986 61.2371C45.8911 60.9639 45.8841 60.629 45.7778 60.2323C45.6992 59.9386 45.5835 59.7129 45.4307 59.555C45.278 59.3972 45.1061 59.2914 44.915 59.2377C44.7226 59.1788 44.5262 59.1569 44.3259 59.1719C44.1257 59.1869 43.9379 59.2179 43.7628 59.2649L41.715 59.8135L41.2284 57.9976C41.5324 57.9162 41.8647 57.8271 42.2253 57.7305C42.591 57.6325 43.0006 57.5228 43.4539 57.4013C44.3452 57.1625 45.1179 57.0686 45.7721 57.1197C46.43 57.1643 46.9739 57.3912 47.4039 57.8006C47.839 58.2085 48.169 58.8324 48.394 59.6721C48.5721 60.3366 48.5981 60.9591 48.472 61.5395C48.3497 62.1134 48.0328 62.6207 47.5215 63.0614C47.0101 63.5021 46.2625 63.8543 45.2785 64.1179ZM56.9779 61.2067C55.9837 61.4731 55.0826 61.5517 54.2748 61.4423C53.4656 61.3279 52.7555 61.0681 52.1445 60.6631C51.5322 60.253 51.0183 59.7364 50.6029 59.1133C50.1926 58.4889 49.8861 57.7981 49.6831 57.0408C49.396 55.9692 49.3477 54.9441 49.5383 53.9655C49.7326 52.9803 50.1812 52.1202 50.8843 51.3852C51.5925 50.6488 52.5777 50.1115 53.8398 49.7733C54.798 49.5166 55.6752 49.4416 56.4713 49.5486C57.2661 49.6503 57.9708 49.9005 58.5856 50.2989C59.2055 50.696 59.7264 51.208 60.1483 51.8348C60.5703 52.4616 60.8875 53.1717 61.1001 53.965C61.3941 55.0623 61.4374 56.0998 61.2301 57.0775C61.0279 58.0537 60.5739 58.9042 59.868 59.6289C59.1622 60.3536 58.1989 60.8795 56.9779 61.2067ZM56.3782 59.1229C56.8882 58.9863 57.3083 58.7716 57.6384 58.4788C57.9672 58.1809 58.2122 57.8281 58.3735 57.4205C58.5349 57.0128 58.6194 56.5761 58.627 56.1102C58.6385 55.6378 58.5794 55.1595 58.4496 54.6752C58.3129 54.1652 58.1164 53.7099 57.86 53.3093C57.6073 52.9022 57.3055 52.5689 56.9544 52.3096C56.6085 52.0489 56.2226 51.8763 55.7969 51.7916C55.3711 51.7069 54.9161 51.7294 54.4318 51.8592C53.9321 51.9931 53.5146 52.2071 53.1793 52.5012C52.8492 52.794 52.6009 53.1449 52.4344 53.5539C52.2666 53.9577 52.1743 54.3966 52.1577 54.8703C52.1411 55.3441 52.1984 55.8257 52.3295 56.3151C52.4606 56.8045 52.6493 57.2509 52.8954 57.6543C53.1401 58.0525 53.4343 58.3878 53.7778 58.6602C54.1251 58.926 54.5156 59.1057 54.9493 59.1994C55.3867 59.2864 55.863 59.261 56.3782 59.1229ZM65.356 58.9287C65.1809 58.9756 65.0114 59.0127 64.8476 59.0401C64.6889 59.066 64.5365 59.0847 64.3905 59.0963C64.2511 59.1115 64.1238 59.1208 64.0087 59.124L63.5496 56.9777C63.6633 56.9693 63.7627 56.9593 63.8479 56.9475C63.9317 56.9305 64.0071 56.9131 64.0741 56.8952C64.4553 56.793 64.7118 56.5448 64.8436 56.1506C64.9754 55.7564 65.0029 55.1997 64.9261 54.4804C64.8531 53.7545 64.702 52.8508 64.473 51.7693C64.3265 51.0576 64.1739 50.3337 64.0153 49.5977C63.8619 48.8603 63.708 48.1313 63.5536 47.4107L71.4896 45.2842C71.6511 45.887 71.8085 46.4743 71.9617 47.0461C72.1149 47.6179 72.2868 48.2593 72.4773 48.9702L73.4794 52.7103C73.6644 53.4006 73.8314 54.0239 73.9805 54.5803C74.1296 55.1367 74.2835 55.7111 74.4422 56.3035L71.8999 56.9847C71.7412 56.3923 71.5873 55.8179 71.4382 55.2615C71.2891 54.7052 71.1221 54.0818 70.9371 53.3915L70.0426 50.0533C69.8521 49.3423 69.6803 48.701 69.5271 48.1291C69.3738 47.5573 69.2165 46.97 69.055 46.3673L70.7356 47.7556L65.1255 49.2588L66.0723 47.2907C66.2241 48.0838 66.3759 48.8769 66.5276 49.6699C66.6832 50.4565 66.8425 51.2779 67.0057 52.1342C67.201 53.1309 67.3517 54.0126 67.4577 54.7793C67.5689 55.5446 67.5852 56.2028 67.5065 56.754C67.4329 57.3037 67.2291 57.7587 66.8949 58.1188C66.5593 58.4737 66.0464 58.7437 65.356 58.9287ZM81.8267 54.3249C80.9458 54.5609 80.1447 54.7755 79.4235 54.9688C78.7074 55.1607 78.0274 55.3429 77.3835 55.5154C77.2247 54.923 77.0708 54.3486 76.9217 53.7922C76.7727 53.2358 76.6056 52.6125 76.4207 51.9222L75.4185 48.1821C75.228 47.4712 75.0562 46.8298 74.9029 46.258C74.7497 45.6862 74.5924 45.0989 74.4309 44.4961L76.9345 43.8253C77.096 44.428 77.2534 45.0153 77.4066 45.5871C77.5598 46.159 77.7317 46.8003 77.9222 47.5113L78.8146 50.8418C78.914 51.2127 79.0085 51.5656 79.0983 51.9004C79.188 52.2353 79.2784 52.5727 79.3695 52.9127L80.8223 52.5234C81.2704 52.4034 81.6178 52.2468 81.8642 52.0538C82.1158 51.8594 82.2747 51.618 82.341 51.3297C82.4125 51.04 82.3951 50.6968 82.2888 50.3001C82.2032 49.9807 82.0871 49.733 81.9406 49.5569C81.7926 49.3757 81.6243 49.2524 81.4356 49.187C81.2456 49.1165 81.0464 49.0842 80.8382 49.0903C80.6352 49.095 80.4332 49.1243 80.2323 49.1781L78.1846 49.7268L77.6504 47.7332C77.9543 47.6517 78.2866 47.5627 78.6472 47.4661C79.013 47.3681 79.4225 47.2583 79.8759 47.1369C80.7671 46.898 81.5412 46.8093 82.1981 46.8707C82.8602 46.9308 83.4097 47.1783 83.8465 47.6134C84.2871 48.042 84.624 48.6916 84.8573 49.5622C85.052 50.2886 85.0924 50.9651 84.9788 51.5919C84.8703 52.2173 84.5638 52.7632 84.0594 53.2297C83.5549 53.6962 82.8107 54.0612 81.8267 54.3249ZM88.2156 52.613C88.0569 52.0205 87.9029 51.4461 87.7539 50.8898C87.6048 50.3334 87.4378 49.71 87.2528 49.0197L86.2506 45.2797C86.0602 44.5687 85.8883 43.9274 85.7351 43.3555C85.5819 42.7837 85.4245 42.1964 85.263 41.5937L87.8053 40.9125C87.9668 41.5152 88.1242 42.1025 88.2774 42.6743C88.4306 43.2461 88.6025 43.8875 88.793 44.5984L89.6854 47.929C89.8703 48.6193 90.0374 49.2426 90.1864 49.799C90.3355 50.3554 90.4894 50.9298 90.6482 51.5222L89.016 50.1292L100.538 47.042L99.7588 49.081C99.6 48.4886 99.4461 47.9142 99.2971 47.3578C99.148 46.8014 98.981 46.1781 98.796 45.4878L97.9036 42.1573C97.7131 41.4463 97.5412 40.805 97.388 40.2331C97.2348 39.6613 97.0774 39.074 96.9159 38.4713L99.4582 37.7901C99.6197 38.3928 99.7771 38.9801 99.9303 39.5519C100.084 40.1238 100.255 40.7651 100.446 41.476L101.448 45.2161C101.633 45.9064 101.8 46.5298 101.949 47.0861C102.098 47.6425 102.252 48.2169 102.411 48.8094L88.2156 52.613ZM93.9555 50.636C93.7968 50.0436 93.6429 49.4692 93.4938 48.9128C93.3447 48.3564 93.1777 47.7331 92.9927 47.0428L92.1003 43.7122C91.9098 43.0013 91.7379 42.3599 91.5847 41.7881C91.4315 41.2163 91.2741 40.629 91.1126 40.0263L93.6086 39.3575C93.7701 39.9602 93.9275 40.5475 94.0807 41.1193C94.2339 41.6912 94.4058 42.3325 94.5962 43.0435L95.4887 46.374C95.6736 47.0643 95.8406 47.6876 95.9897 48.244C96.1388 48.8004 96.2927 49.3748 96.4515 49.9672L93.9555 50.636ZM110.674 46.8188C109.68 47.0852 108.779 47.1637 107.971 47.0544C107.162 46.94 106.452 46.6802 105.841 46.2752C105.229 45.8651 104.715 45.3485 104.299 44.7254C103.889 44.101 103.582 43.4101 103.38 42.6529C103.092 41.5813 103.044 40.5562 103.235 39.5776C103.429 38.5924 103.878 37.7323 104.581 36.9973C105.289 36.2609 106.274 35.7236 107.536 35.3854C108.494 35.1287 109.372 35.0537 110.168 35.1607C110.962 35.2624 111.667 35.5125 112.282 35.911C112.902 36.3081 113.423 36.8201 113.845 37.4469C114.267 38.0737 114.584 38.7838 114.797 39.5771C115.091 40.6744 115.134 41.7119 114.927 42.6895C114.724 43.6658 114.27 44.5163 113.564 45.241C112.859 45.9657 111.895 46.4916 110.674 46.8188ZM110.075 44.735C110.585 44.5983 111.005 44.3836 111.335 44.0909C111.664 43.793 111.909 43.4402 112.07 43.0326C112.231 42.6249 112.316 42.1882 112.323 41.7223C112.335 41.2499 112.276 40.7716 112.146 40.2873C112.009 39.7773 111.813 39.322 111.556 38.9214C111.304 38.5142 111.002 38.181 110.651 37.9217C110.305 37.661 109.919 37.4883 109.493 37.4036C109.068 37.319 108.613 37.3415 108.128 37.4712C107.629 37.6051 107.211 37.8192 106.876 38.1133C106.546 38.406 106.297 38.7569 106.131 39.166C105.963 39.5698 105.871 40.0087 105.854 40.4824C105.838 40.9562 105.895 41.4378 106.026 41.9272C106.157 42.4166 106.346 42.863 106.592 43.2664C106.837 43.6646 107.131 43.9999 107.474 44.2723C107.822 44.5381 108.212 44.7178 108.646 44.8114C109.083 44.8985 109.559 44.873 110.075 44.735ZM118.716 44.4404C118.557 43.848 118.403 43.2736 118.254 42.7172C118.105 42.1608 117.938 41.5375 117.753 40.8472L116.751 37.1071C116.561 36.3962 116.389 35.7548 116.236 35.183C116.082 34.6111 115.925 34.0239 115.763 33.4211L123.081 31.4603L123.638 33.539C123.164 33.666 122.654 33.8026 122.108 33.9489C121.567 34.0939 120.929 34.265 120.192 34.4624L117.595 35.1581L118.359 33.1562C118.521 33.759 118.678 34.3462 118.831 34.9181C118.985 35.4899 119.156 36.1313 119.347 36.8422L120.134 39.7786C120.317 40.4638 120.484 41.0871 120.635 41.6486C120.784 42.205 120.938 42.7794 121.097 43.3719L119.596 41.9766L122.216 41.2747C122.829 41.1104 123.409 40.9551 123.955 40.8088C124.506 40.6611 125.036 40.5189 125.546 40.3823L126.103 42.4609L118.716 44.4404ZM119.395 39.3389L118.877 37.407L120.894 36.8666C121.574 36.6844 122.156 36.5284 122.64 36.3987C123.125 36.2689 123.591 36.144 124.039 36.0239L124.557 37.9558C124.083 38.0828 123.604 38.2111 123.119 38.3409C122.635 38.4706 122.066 38.6232 121.412 38.7985L119.395 39.3389Z" fill="white"/>
<defs>
<filter id="filter0_d" x="0" y="0.0244141" width="189.016" height="131.032" filterUnits="userSpaceOnUse" color-interpolation-filters="sRGB">
<feFlood flood-opacity="0" result="BackgroundImageFix"/>
<feColorMatrix in="SourceAlpha" type="matrix" values="0 0 0 0 0 0 0 0 0 0 0 0 0 0 0 0 0 0 127 0"/>
<feOffset dy="10"/>
<feGaussianBlur stdDeviation="10"/>
<feColorMatrix type="matrix" values="0 0 0 0 0.145098 0 0 0 0 0.164706 0 0 0 0 0.203922 0 0 0 0.15 0"/>
<feBlend mode="multiply" in2="BackgroundImageFix" result="effect1_dropShadow"/>
<feBlend mode="normal" in="SourceGraphic" in2="effect1_dropShadow" result="shape"/>
</filter>
</defs>
</svg>
