<svg width="18" height="24" viewBox="0 0 18 24" fill="none" xmlns="http://www.w3.org/2000/svg">
<path d="M16.4939 9.41242L4.20361 0.67576C3.17537 -0.0456535 2.14109 -0.204674 1.27017 0.272293C0.477811 0.67576 0 1.63566 0 2.84009V21.1937C0 22.3981 0.477811 23.358 1.27017 23.7615C1.58466 23.9205 1.90525 23.9999 2.29841 23.9999C2.85488 23.9999 3.56857 23.7615 4.20366 23.4375L16.494 14.7008C17.4436 14.0589 18 13.099 18 12.0535C18 11.0082 17.4435 10.0483 16.4939 9.41242ZM15.5383 13.3374L3.24799 22.0741C2.77018 22.4776 2.29836 22.5571 1.97782 22.392C1.66332 22.233 1.50001 21.75 1.50001 21.1876V2.83399C1.50001 2.19204 1.65728 1.79468 1.97782 1.62955C2.05644 1.55009 2.21371 1.55009 2.29232 1.55009C2.52821 1.55009 2.9274 1.62955 3.32052 1.95356L15.6109 10.6902C16.0887 11.0081 16.4032 11.4911 16.4032 11.9741C16.4153 12.4571 16.0948 12.934 15.5383 13.3374Z" fill="#2F80ED"/>
</svg>
